<?xml version="1.0" encoding="utf-8" standalone="no"?>
<!DOCTYPE svg PUBLIC "-//W3C//DTD SVG 1.1//EN"
  "http://www.w3.org/Graphics/SVG/1.1/DTD/svg11.dtd">
<svg xmlns:xlink="http://www.w3.org/1999/xlink" width="511.935948pt" height="341.935592pt" viewBox="0 0 511.935948 341.935592" xmlns="http://www.w3.org/2000/svg" version="1.1">
 <metadata>
  <rdf:RDF xmlns:dc="http://purl.org/dc/elements/1.1/" xmlns:cc="http://creativecommons.org/ns#" xmlns:rdf="http://www.w3.org/1999/02/22-rdf-syntax-ns#">
   <cc:Work>
    <dc:type rdf:resource="http://purl.org/dc/dcmitype/StillImage"/>
    <dc:date>2026-08-11T12:46:37.288413</dc:date>
    <dc:format>image/svg+xml</dc:format>
    <dc:creator>
     <cc:Agent>
      <dc:title>Matplotlib v3.11.1, https://matplotlib.org/</dc:title>
     </cc:Agent>
    </dc:creator>
   </cc:Work>
  </rdf:RDF>
 </metadata>
 <defs>
  <style type="text/css">*{stroke-linejoin: round; stroke-linecap: butt}</style>
 </defs>
 <g id="figure_1">
  <g id="patch_1">
   <path d="M 0 341.935592 
L 511.935948 341.935592 
L 511.935948 0 
L 0 0 
L 0 341.935592 
z
" style="fill: none"/>
  </g>
  <g id="axes_1">
   <g id="line2d_1">
    <path d="M 7.2 170.967796 
L 334.735592 170.967796 
" clip-path="url(#p78d6a24d3d)" style="fill: none; stroke: #23373b; stroke-linecap: round"/>
   </g>
   <g id="line2d_2">
    <path d="M 170.967796 334.735592 
L 170.967796 7.2 
" clip-path="url(#p78d6a24d3d)" style="fill: none; stroke: #23373b; stroke-linecap: round"/>
   </g>
   <g id="patch_2">
    <path d="M 276.624439 170.967796 
L 170.967796 65.311153 
L 65.311153 170.967796 
L 170.967796 276.624439 
z
" clip-path="url(#p78d6a24d3d)" style="fill: #eb811b; opacity: 0.1; stroke: #eb811b; stroke-linejoin: miter"/>
   </g>
   <g id="patch_3">
    <path d="M 276.624439 170.967796 
L 276.611339 169.304055 
L 276.572042 167.640726 
L 276.506558 165.978222 
L 276.414904 164.316956 
L 276.297101 162.657338 
L 276.153179 160.999782 
L 275.983175 159.344697 
L 275.787129 157.692494 
L 275.565091 156.043584 
L 275.317115 154.398374 
L 275.043264 152.757273 
L 274.743605 151.120688 
L 274.418212 149.489024 
L 274.067166 147.862686 
L 273.690554 146.242078 
L 273.28847 144.627601 
L 272.861013 143.019656 
L 272.408289 141.418641 
L 271.930411 139.824954 
L 271.427496 138.238989 
L 270.899671 136.66114 
L 270.347064 135.091799 
L 269.769815 133.531353 
L 269.168065 131.980191 
L 268.541964 130.438697 
L 267.891667 128.907252 
L 267.217336 127.386238 
L 266.519138 125.876031 
L 265.797245 124.377005 
L 265.051837 122.889533 
L 264.283099 121.413982 
L 263.491221 119.95072 
L 262.6764 118.500109 
L 261.838837 117.062508 
L 260.978741 115.638274 
L 260.096324 114.227761 
L 259.191806 112.831317 
L 258.265411 111.44929 
L 257.317369 110.082022 
L 256.347913 108.729852 
L 255.357286 107.393115 
L 254.345733 106.072143 
L 253.313504 104.767264 
L 252.260856 103.4788 
L 251.188049 102.207072 
L 250.095349 100.952394 
L 248.983028 99.715079 
L 247.851362 98.495433 
L 246.70063 97.293757 
L 245.531119 96.110351 
L 244.343118 94.945508 
L 243.136921 93.799516 
L 241.912829 92.672659 
L 240.671144 91.565218 
L 239.412175 90.477466 
L 238.136233 89.409674 
L 236.843635 88.362107 
L 235.534702 87.335023 
L 234.209758 86.328678 
L 232.869132 85.343321 
L 231.513156 84.379197 
L 230.142166 83.436544 
L 228.756502 82.515597 
L 227.356509 81.616583 
L 225.942532 80.739727 
L 224.514924 79.885244 
L 223.074037 79.053348 
L 221.620229 78.244243 
L 220.15386 77.458132 
L 218.675295 76.695209 
L 217.184899 75.955663 
L 215.683043 75.239677 
L 214.170099 74.547429 
L 212.646442 73.879091 
L 211.11245 73.234829 
L 209.568502 72.614801 
L 208.014983 72.019163 
L 206.452277 71.448061 
L 204.880772 70.901637 
L 203.300857 70.380027 
L 201.712925 69.88336 
L 200.117369 69.41176 
L 198.514584 68.965342 
L 196.904969 68.544219 
L 195.288921 68.148493 
L 193.666843 67.778265 
L 192.039136 67.433624 
L 190.406204 67.114657 
L 188.768452 66.821443 
L 187.126285 66.554055 
L 185.480112 66.312558 
L 183.83034 66.097013 
L 182.177379 65.907473 
L 180.521637 65.743986 
L 178.863527 65.606591 
L 177.203459 65.495323 
L 175.541844 65.410209 
L 173.879096 65.351271 
L 172.215625 65.318522 
L 170.551845 65.311972 
L 168.888168 65.331622 
L 167.225007 65.377467 
L 165.562773 65.449495 
L 163.90188 65.547689 
L 162.24274 65.672024 
L 160.585763 65.82247 
L 158.93136 65.99899 
L 157.279942 66.201538 
L 155.631918 66.430066 
L 153.987698 66.684517 
L 152.347687 66.964827 
L 150.712294 67.270926 
L 149.081924 67.60274 
L 147.456981 67.960186 
L 145.837868 68.343175 
L 144.224987 68.751612 
L 142.618737 69.185396 
L 141.019517 69.644419 
L 139.427723 70.128568 
L 137.843751 70.637722 
L 136.267992 71.171755 
L 134.700838 71.730536 
L 133.142677 72.313924 
L 131.593896 72.921776 
L 130.054878 73.55394 
L 128.526006 74.210261 
L 127.007658 74.890575 
L 125.500212 75.594714 
L 124.004039 76.322502 
L 122.519513 77.07376 
L 121.047001 77.848301 
L 119.586867 78.645934 
L 118.139475 79.46646 
L 116.705183 80.309675 
L 115.284346 81.175372 
L 113.877317 82.063334 
L 112.484445 82.973343 
L 111.106076 83.905172 
L 109.742551 84.85859 
L 108.394208 85.83336 
L 107.061381 86.829242 
L 105.744402 87.845988 
L 104.443596 88.883346 
L 103.159287 89.941059 
L 101.891792 91.018864 
L 100.641426 92.116494 
L 99.408499 93.233678 
L 98.193317 94.370137 
L 96.996181 95.525591 
L 95.817389 96.699752 
L 94.657231 97.89233 
L 93.515996 99.103028 
L 92.393968 100.331547 
L 91.291424 101.577582 
L 90.208637 102.840824 
L 89.145876 104.12096 
L 88.103405 105.417671 
L 87.081482 106.730638 
L 86.080361 108.059533 
L 85.10029 109.404029 
L 84.141511 110.76379 
L 83.204263 112.13848 
L 82.288778 113.527759 
L 81.395283 114.931281 
L 80.524 116.348698 
L 79.675144 117.77966 
L 78.848927 119.223811 
L 78.045552 120.680793 
L 77.26522 122.150244 
L 76.508123 123.631802 
L 75.77445 125.125097 
L 75.064383 126.62976 
L 74.378097 128.145418 
L 73.715762 129.671694 
L 73.077544 131.208211 
L 72.463599 132.754588 
L 71.874081 134.31044 
L 71.309136 135.875382 
L 70.768903 137.449026 
L 70.253517 139.030982 
L 69.763105 140.620857 
L 69.29779 142.218258 
L 68.857686 143.822787 
L 68.442902 145.434048 
L 68.053542 147.051641 
L 67.689702 148.675164 
L 67.351472 150.304215 
L 67.038937 151.93839 
L 66.752172 153.577284 
L 66.491251 155.220491 
L 66.256237 156.867602 
L 66.047188 158.51821 
L 65.864157 160.171905 
L 65.707189 161.828277 
L 65.576323 163.486915 
L 65.471591 165.147408 
L 65.39302 166.809345 
L 65.340628 168.472313 
L 65.314429 170.1359 
L 65.314429 171.799693 
L 65.340628 173.463279 
L 65.39302 175.126247 
L 65.471591 176.788184 
L 65.576323 178.448677 
L 65.707189 180.107316 
L 65.864157 181.763688 
L 66.047188 183.417383 
L 66.256237 185.06799 
L 66.491251 186.715102 
L 66.752172 188.358308 
L 67.038937 189.997202 
L 67.351472 191.631377 
L 67.689702 193.260428 
L 68.053542 194.883952 
L 68.442902 196.501544 
L 68.857686 198.112805 
L 69.29779 199.717335 
L 69.763105 201.314735 
L 70.253517 202.904611 
L 70.768903 204.486567 
L 71.309136 206.060211 
L 71.874081 207.625153 
L 72.463599 209.181005 
L 73.077544 210.727381 
L 73.715762 212.263898 
L 74.378097 213.790175 
L 75.064383 215.305832 
L 75.77445 216.810495 
L 76.508123 218.303791 
L 77.26522 219.785348 
L 78.045552 221.2548 
L 78.848927 222.711782 
L 79.675144 224.155933 
L 80.524 225.586894 
L 81.395283 227.004312 
L 82.288778 228.407834 
L 83.204263 229.797112 
L 84.141511 231.171803 
L 85.10029 232.531564 
L 86.080361 233.876059 
L 87.081482 235.204955 
L 88.103405 236.517921 
L 89.145876 237.814633 
L 90.208637 239.094768 
L 91.291424 240.35801 
L 92.393968 241.604045 
L 93.515996 242.832564 
L 94.657231 244.043263 
L 95.817389 245.23584 
L 96.996181 246.410002 
L 98.193317 247.565455 
L 99.408499 248.701915 
L 100.641426 249.819098 
L 101.891792 250.916728 
L 103.159287 251.994534 
L 104.443596 253.052246 
L 105.744402 254.089604 
L 107.061381 255.10635 
L 108.394208 256.102232 
L 109.742551 257.077003 
L 111.106076 258.030421 
L 112.484445 258.96225 
L 113.877317 259.872258 
L 115.284346 260.760221 
L 116.705183 261.625917 
L 118.139475 262.469133 
L 119.586867 263.289659 
L 121.047001 264.087291 
L 122.519513 264.861832 
L 124.004039 265.61309 
L 125.500212 266.340879 
L 127.007658 267.045017 
L 128.526006 267.725331 
L 130.054878 268.381652 
L 131.593896 269.013817 
L 133.142677 269.621669 
L 134.700838 270.205057 
L 136.267992 270.763837 
L 137.843751 271.29787 
L 139.427723 271.807024 
L 141.019517 272.291173 
L 142.618737 272.750196 
L 144.224987 273.18398 
L 145.837868 273.592417 
L 147.456981 273.975406 
L 149.081924 274.332852 
L 150.712294 274.664666 
L 152.347687 274.970766 
L 153.987698 275.251076 
L 155.631918 275.505526 
L 157.279942 275.734054 
L 158.93136 275.936603 
L 160.585763 276.113122 
L 162.24274 276.263568 
L 163.90188 276.387903 
L 165.562773 276.486097 
L 167.225007 276.558126 
L 168.888168 276.60397 
L 170.551845 276.62362 
L 172.215625 276.61707 
L 173.879096 276.584322 
L 175.541844 276.525383 
L 177.203459 276.44027 
L 178.863527 276.329002 
L 180.521637 276.191607 
L 182.177379 276.028119 
L 183.83034 275.838579 
L 185.480112 275.623034 
L 187.126285 275.381538 
L 188.768452 275.114149 
L 190.406204 274.820935 
L 192.039136 274.501968 
L 193.666843 274.157328 
L 195.288921 273.787099 
L 196.904969 273.391374 
L 198.514584 272.97025 
L 200.117369 272.523833 
L 201.712925 272.052232 
L 203.300857 271.555565 
L 204.880772 271.033955 
L 206.452277 270.487532 
L 208.014983 269.91643 
L 209.568502 269.320791 
L 211.11245 268.700764 
L 212.646442 268.056501 
L 214.170099 267.388163 
L 215.683043 266.695915 
L 217.184899 265.97993 
L 218.675295 265.240383 
L 220.15386 264.47746 
L 221.620229 263.691349 
L 223.074037 262.882245 
L 224.514924 262.050348 
L 225.942532 261.195866 
L 227.356509 260.319009 
L 228.756502 259.419996 
L 230.142166 258.499048 
L 231.513156 257.556396 
L 232.869132 256.592272 
L 234.209758 255.606915 
L 235.534702 254.60057 
L 236.843635 253.573486 
L 238.136233 252.525918 
L 239.412175 251.458126 
L 240.671144 250.370374 
L 241.912829 249.262933 
L 243.136921 248.136077 
L 244.343118 246.990085 
L 245.531119 245.825241 
L 246.70063 244.641835 
L 247.851362 243.44016 
L 248.983028 242.220513 
L 250.095349 240.983198 
L 251.188049 239.728521 
L 252.260856 238.456792 
L 253.313504 237.168329 
L 254.345733 235.863449 
L 255.357286 234.542477 
L 256.347913 233.205741 
L 257.317369 231.85357 
L 258.265411 230.486302 
L 259.191806 229.104275 
L 260.096324 227.707832 
L 260.978741 226.297318 
L 261.838837 224.873084 
L 262.6764 223.435484 
L 263.491221 221.984872 
L 264.283099 220.52161 
L 265.051837 219.04606 
L 265.797245 217.558587 
L 266.519138 216.059562 
L 267.217336 214.549354 
L 267.891667 213.02834 
L 268.541964 211.496896 
L 269.168065 209.955401 
L 269.769815 208.404239 
L 270.347064 206.843794 
L 270.899671 205.274452 
L 271.427496 203.696603 
L 271.930411 202.110638 
L 272.408289 200.516951 
L 272.861013 198.915936 
L 273.28847 197.307991 
L 273.690554 195.693514 
L 274.067166 194.072906 
L 274.418212 192.446569 
L 274.743605 190.814905 
L 275.043264 189.178319 
L 275.317115 187.537218 
L 275.565091 185.892009 
L 275.787129 184.243098 
L 275.983175 182.590896 
L 276.153179 180.935811 
L 276.297101 179.278254 
L 276.414904 177.618637 
L 276.506558 175.95737 
L 276.572042 174.294866 
L 276.611339 172.631538 
L 276.624439 170.967796 
z
" clip-path="url(#p78d6a24d3d)" style="fill: #2c7a7b; opacity: 0.1; stroke: #2c7a7b; stroke-linejoin: miter"/>
   </g>
   <g id="line2d_3">
    <path d="M 276.624439 65.311153 
L 65.311153 65.311153 
L 65.311153 276.624439 
L 276.624439 276.624439 
L 276.624439 65.311153 
" clip-path="url(#p78d6a24d3d)" style="fill: none; stroke-dasharray: 8.14,3.52; stroke-dashoffset: 0; stroke: #6e7f82; stroke-width: 2.2"/>
   </g>
   <g id="line2d_4">
    <path d="M 276.624439 170.967796 
L 170.967796 65.311153 
L 65.311153 170.967796 
L 170.967796 276.624439 
L 276.624439 170.967796 
" clip-path="url(#p78d6a24d3d)" style="fill: none; stroke: #eb811b; stroke-width: 2.6; stroke-linecap: round"/>
   </g>
   <g id="line2d_5">
    <path d="M 276.624439 170.967796 
L 276.506558 165.978222 
L 276.153179 160.999782 
L 275.565091 156.043584 
L 274.743605 151.120688 
L 273.690554 146.242078 
L 272.408289 141.418641 
L 270.899671 136.66114 
L 269.168065 131.980191 
L 267.217336 127.386238 
L 265.051837 122.889533 
L 262.6764 118.500109 
L 260.096324 114.227761 
L 257.317369 110.082022 
L 254.345733 106.072143 
L 251.188049 102.207072 
L 247.851362 98.495433 
L 244.343118 94.945508 
L 240.671144 91.565218 
L 236.843635 88.362107 
L 232.869132 85.343321 
L 228.756502 82.515597 
L 224.514924 79.885244 
L 220.15386 77.458132 
L 215.683043 75.239677 
L 211.11245 73.234829 
L 206.452277 71.448061 
L 201.712925 69.88336 
L 196.904969 68.544219 
L 192.039136 67.433624 
L 187.126285 66.554055 
L 182.177379 65.907473 
L 177.203459 65.495323 
L 172.215625 65.318522 
L 167.225007 65.377467 
L 162.24274 65.672024 
L 157.279942 66.201538 
L 152.347687 66.964827 
L 147.456981 67.960186 
L 142.618737 69.185396 
L 137.843751 70.637722 
L 133.142677 72.313924 
L 128.526006 74.210261 
L 124.004039 76.322502 
L 119.586867 78.645934 
L 115.284346 81.175372 
L 111.106076 83.905172 
L 107.061381 86.829242 
L 103.159287 89.941059 
L 99.408499 93.233678 
L 95.817389 96.699752 
L 92.393968 100.331547 
L 89.145876 104.12096 
L 86.080361 108.059533 
L 83.204263 112.13848 
L 80.524 116.348698 
L 78.045552 120.680793 
L 75.77445 125.125097 
L 73.715762 129.671694 
L 71.874081 134.31044 
L 70.253517 139.030982 
L 68.857686 143.822787 
L 67.689702 148.675164 
L 66.752172 153.577284 
L 66.047188 158.51821 
L 65.576323 163.486915 
L 65.340628 168.472313 
L 65.340628 173.463279 
L 65.576323 178.448677 
L 66.047188 183.417383 
L 66.752172 188.358308 
L 67.689702 193.260428 
L 68.857686 198.112805 
L 70.253517 202.904611 
L 71.874081 207.625153 
L 73.715762 212.263898 
L 75.77445 216.810495 
L 78.045552 221.2548 
L 80.524 225.586894 
L 83.204263 229.797112 
L 86.080361 233.876059 
L 89.145876 237.814633 
L 92.393968 241.604045 
L 95.817389 245.23584 
L 99.408499 248.701915 
L 103.159287 251.994534 
L 107.061381 255.10635 
L 111.106076 258.030421 
L 115.284346 260.760221 
L 119.586867 263.289659 
L 124.004039 265.61309 
L 128.526006 267.725331 
L 133.142677 269.621669 
L 137.843751 271.29787 
L 142.618737 272.750196 
L 147.456981 273.975406 
L 152.347687 274.970766 
L 157.279942 275.734054 
L 162.24274 276.263568 
L 167.225007 276.558126 
L 172.215625 276.61707 
L 177.203459 276.44027 
L 182.177379 276.028119 
L 187.126285 275.381538 
L 192.039136 274.501968 
L 196.904969 273.391374 
L 201.712925 272.052232 
L 206.452277 270.487532 
L 211.11245 268.700764 
L 215.683043 266.695915 
L 220.15386 264.47746 
L 224.514924 262.050348 
L 228.756502 259.419996 
L 232.869132 256.592272 
L 236.843635 253.573486 
L 240.671144 250.370374 
L 244.343118 246.990085 
L 247.851362 243.44016 
L 251.188049 239.728521 
L 254.345733 235.863449 
L 257.317369 231.85357 
L 260.096324 227.707832 
L 262.6764 223.435484 
L 265.051837 219.04606 
L 267.217336 214.549354 
L 269.168065 209.955401 
L 270.899671 205.274452 
L 272.408289 200.516951 
L 273.690554 195.693514 
L 274.743605 190.814905 
L 275.565091 185.892009 
L 276.153179 180.935811 
L 276.506558 175.95737 
L 276.624439 170.967796 
L 276.624439 170.967796 
" clip-path="url(#p78d6a24d3d)" style="fill: none; stroke: #2c7a7b; stroke-width: 2.6; stroke-linecap: round"/>
   </g>
   <g id="text_1">
    <!-- (1, 0) -->
    <g style="fill: #23373b" transform="translate(284.020404 163.571831) scale(0.115 -0.115)">
     <defs>
      <path id="IBMPlexSans-70" d="M 531 1997 
C 531 749 1056 -339 1690 -877 
L 2176 -877 
C 1485 -262 1011 819 1011 1715 
L 1011 2266 
C 1011 3162 1466 4224 2176 4864 
L 1690 4864 
C 1037 4307 531 3232 531 1997 
z
" transform="scale(0.015625)"/>
      <path id="IBMPlexSans-3b" d="M 3501 0 
L 3501 474 
L 2349 474 
L 2349 4467 
L 1510 4467 
L 326 3360 
L 640 3021 
L 1766 4070 
L 1811 4070 
L 1811 474 
L 563 474 
L 563 0 
L 3501 0 
z
" transform="scale(0.015625)"/>
      <path id="IBMPlexSans-5d" d="M 870 749 
C 602 749 480 595 480 371 
L 480 282 
C 480 109 557 -19 730 -58 
C 659 -358 506 -582 250 -851 
L 678 -851 
C 1043 -538 1261 -64 1261 282 
L 1261 371 
C 1261 595 1139 749 870 749 
z
" transform="scale(0.015625)"/>
      <path id="IBMPlexSans-3e1" transform="scale(0.015625)"/>
      <path id="IBMPlexSans-38" d="M 1920 -77 
C 2989 -77 3456 774 3456 2234 
C 3456 3693 2989 4544 1920 4544 
C 851 4544 384 3693 384 2234 
C 384 774 851 -77 1920 -77 
z
M 1920 390 
C 1222 390 947 1005 947 1869 
L 947 2598 
C 947 3462 1222 4077 1920 4077 
C 2618 4077 2893 3462 2893 2598 
L 2893 1869 
C 2893 1005 2618 390 1920 390 
z
" transform="scale(0.015625)"/>
      <path id="IBMPlexSans-71" d="M 1613 1997 
C 1613 3232 1107 4307 454 4864 
L -32 4864 
C 678 4224 1133 3162 1133 2266 
L 1133 1715 
C 1133 819 659 -262 -32 -877 
L 454 -877 
C 1088 -339 1613 749 1613 1997 
z
" transform="scale(0.015625)"/>
     </defs>
     <use xlink:href="#IBMPlexSans-70"/>
     <use xlink:href="#IBMPlexSans-3b" transform="translate(33.5 0)"/>
     <use xlink:href="#IBMPlexSans-5d" transform="translate(93.5 0)"/>
     <use xlink:href="#IBMPlexSans-3e1" transform="translate(120.703125 0)"/>
     <use xlink:href="#IBMPlexSans-38" transform="translate(144.296875 0)"/>
     <use xlink:href="#IBMPlexSans-71" transform="translate(204.296875 0)"/>
    </g>
   </g>
   <g id="text_2">
    <!-- (0, 1) -->
    <g style="fill: #23373b" transform="translate(179.420328 56.858622) scale(0.115 -0.115)">
     <use xlink:href="#IBMPlexSans-70"/>
     <use xlink:href="#IBMPlexSans-38" transform="translate(33.5 0)"/>
     <use xlink:href="#IBMPlexSans-5d" transform="translate(93.5 0)"/>
     <use xlink:href="#IBMPlexSans-3e1" transform="translate(120.703125 0)"/>
     <use xlink:href="#IBMPlexSans-3b" transform="translate(144.296875 0)"/>
     <use xlink:href="#IBMPlexSans-71" transform="translate(204.296875 0)"/>
    </g>
   </g>
   <g id="line2d_6">
    <defs>
     <path id="m6b28c77d63" d="M 0 2.5 
C 0.663008 2.5 1.29895 2.236584 1.767767 1.767767 
C 2.236584 1.29895 2.5 0.663008 2.5 0 
C 2.5 -0.663008 2.236584 -1.29895 1.767767 -1.767767 
C 1.29895 -2.236584 0.663008 -2.5 0 -2.5 
C -0.663008 -2.5 -1.29895 -2.236584 -1.767767 -1.767767 
C -2.236584 -1.29895 -2.5 -0.663008 -2.5 0 
C -2.5 0.663008 -2.236584 1.29895 -1.767767 1.767767 
C -1.29895 2.236584 -0.663008 2.5 0 2.5 
z
" style="stroke: #23373b"/>
    </defs>
    <g clip-path="url(#p78d6a24d3d)">
     <use xlink:href="#m6b28c77d63" x="276.624439" y="170.967796" style="fill: #23373b; stroke: #23373b"/>
    </g>
   </g>
   <g id="line2d_7">
    <g clip-path="url(#p78d6a24d3d)">
     <use xlink:href="#m6b28c77d63" x="170.967796" y="65.311153" style="fill: #23373b; stroke: #23373b"/>
    </g>
   </g>
   <g id="line2d_8">
    <g clip-path="url(#p78d6a24d3d)">
     <use xlink:href="#m6b28c77d63" x="65.311153" y="170.967796" style="fill: #23373b; stroke: #23373b"/>
    </g>
   </g>
   <g id="line2d_9">
    <g clip-path="url(#p78d6a24d3d)">
     <use xlink:href="#m6b28c77d63" x="170.967796" y="276.624439" style="fill: #23373b; stroke: #23373b"/>
    </g>
   </g>
   <g id="legend_1">
    <g id="line2d_10">
     <path d="M 350.160948 149.367796 
L 360.960948 149.367796 
L 371.760948 149.367796 
" style="fill: none; stroke: #2c7a7b; stroke-width: 2.6; stroke-linecap: round"/>
    </g>
    <g id="text_3">
     <!-- $\|\mathbf{x}\|_2=1$   circle -->
     <g style="fill: #23373b" transform="translate(382.560948 154.092796) scale(0.135 -0.135)">
      <defs>
       <path id="DejaVuSans-af8" d="M 1344 4891 
L 1344 -1509 
L 813 -1509 
L 813 4891 
L 1344 4891 
z
M 2375 4891 
L 2375 -1509 
L 1844 -1509 
L 1844 4891 
L 2375 4891 
z
" transform="scale(0.015625)"/>
       <path id="DejaVuSans-Bold-5b" d="M 1422 1791 
L 159 3500 
L 1344 3500 
L 2059 2463 
L 2784 3500 
L 3969 3500 
L 2706 1797 
L 4031 0 
L 2847 0 
L 2059 1106 
L 1281 0 
L 97 0 
L 1422 1791 
z
" transform="scale(0.015625)"/>
       <path id="DejaVuSans-15" d="M 1228 531 
L 3431 531 
L 3431 0 
L 469 0 
L 469 531 
Q 828 903 1448 1529 
Q 2069 2156 2228 2338 
Q 2531 2678 2651 2914 
Q 2772 3150 2772 3378 
Q 2772 3750 2511 3984 
Q 2250 4219 1831 4219 
Q 1534 4219 1204 4116 
Q 875 4013 500 3803 
L 500 4441 
Q 881 4594 1212 4672 
Q 1544 4750 1819 4750 
Q 2544 4750 2975 4387 
Q 3406 4025 3406 3419 
Q 3406 3131 3298 2873 
Q 3191 2616 2906 2266 
Q 2828 2175 2409 1742 
Q 1991 1309 1228 531 
z
" transform="scale(0.015625)"/>
       <path id="DejaVuSans-20" d="M 678 2906 
L 4684 2906 
L 4684 2381 
L 678 2381 
L 678 2906 
z
M 678 1631 
L 4684 1631 
L 4684 1100 
L 678 1100 
L 678 1631 
z
" transform="scale(0.015625)"/>
       <path id="DejaVuSans-14" d="M 794 531 
L 1825 531 
L 1825 4091 
L 703 3866 
L 703 4441 
L 1819 4666 
L 2450 4666 
L 2450 531 
L 3481 531 
L 3481 0 
L 794 0 
L 794 531 
z
" transform="scale(0.015625)"/>
       <path id="IBMPlexSans-4" d="M 1773 -77 
C 2400 -77 2829 230 3040 704 
L 2669 954 
C 2490 576 2189 378 1773 378 
C 1165 378 851 794 851 1370 
L 851 1933 
C 851 2509 1165 2925 1773 2925 
C 2176 2925 2458 2726 2579 2387 
L 3008 2605 
C 2816 3059 2426 3379 1773 3379 
C 845 3379 301 2707 301 1651 
C 301 595 845 -77 1773 -77 
z
" transform="scale(0.015625)"/>
       <path id="IBMPlexSans-c" d="M 800 4077 
C 1018 4077 1114 4192 1114 4365 
L 1114 4448 
C 1114 4621 1018 4736 800 4736 
C 582 4736 486 4621 486 4448 
L 486 4365 
C 486 4192 582 4077 800 4077 
z
M 544 0 
L 1056 0 
L 1056 3302 
L 544 3302 
L 544 0 
z
" transform="scale(0.015625)"/>
       <path id="IBMPlexSans-15" d="M 1056 0 
L 1056 2240 
C 1056 2554 1389 2790 1939 2790 
L 2240 2790 
L 2240 3302 
L 2042 3302 
C 1504 3302 1203 3008 1088 2694 
L 1056 2694 
L 1056 3302 
L 544 3302 
L 544 0 
L 1056 0 
z
" transform="scale(0.015625)"/>
       <path id="IBMPlexSans-f" d="M 1542 0 
L 1542 448 
L 1056 448 
L 1056 4736 
L 544 4736 
L 544 531 
C 544 224 736 0 1088 0 
L 1542 0 
z
" transform="scale(0.015625)"/>
       <path id="IBMPlexSans-6" d="M 1786 -77 
C 2406 -77 2880 230 3091 678 
L 2726 941 
C 2554 576 2234 371 1818 371 
C 1203 371 838 800 838 1370 
L 838 1523 
L 3213 1523 
L 3213 1766 
C 3213 2701 2669 3379 1786 3379 
C 890 3379 301 2701 301 1651 
C 301 602 890 -77 1786 -77 
z
M 1786 2950 
C 2310 2950 2662 2560 2662 1978 
L 2662 1907 
L 838 1907 
L 838 1952 
C 838 2528 1229 2950 1786 2950 
z
" transform="scale(0.015625)"/>
      </defs>
      <use xlink:href="#DejaVuSans-af8" transform="translate(0 0.578125)"/>
      <use xlink:href="#DejaVuSans-Bold-5b" transform="translate(50 0.578125)"/>
      <use xlink:href="#DejaVuSans-af8" transform="translate(114.501953 0.578125)"/>
      <use xlink:href="#DejaVuSans-15" transform="translate(165.458984 -14.421826) scale(0.7)"/>
      <use xlink:href="#DejaVuSans-20" transform="translate(232.211914 0.578125)"/>
      <use xlink:href="#DejaVuSans-14" transform="translate(335.483398 0.578125)"/>
      <use xlink:href="#IBMPlexSans-3e1" transform="translate(399.106445 0.578125)"/>
      <use xlink:href="#IBMPlexSans-3e1" transform="translate(422.706421 0.578125)"/>
      <use xlink:href="#IBMPlexSans-3e1" transform="translate(446.306396 0.578125)"/>
      <use xlink:href="#IBMPlexSans-4" transform="translate(469.906372 0.578125)"/>
      <use xlink:href="#IBMPlexSans-c" transform="translate(520.206329 0.578125)"/>
      <use xlink:href="#IBMPlexSans-15" transform="translate(545.206299 0.578125)"/>
      <use xlink:href="#IBMPlexSans-4" transform="translate(581.906265 0.578125)"/>
      <use xlink:href="#IBMPlexSans-f" transform="translate(632.206223 0.578125)"/>
      <use xlink:href="#IBMPlexSans-6" transform="translate(659.406204 0.578125)"/>
     </g>
    </g>
    <g id="line2d_11">
     <path d="M 350.160948 169.887796 
L 360.960948 169.887796 
L 371.760948 169.887796 
" style="fill: none; stroke: #eb811b; stroke-width: 2.6; stroke-linecap: round"/>
    </g>
    <g id="text_4">
     <!-- $\|\mathbf{x}\|_1=1$   diamond -->
     <g style="fill: #23373b" transform="translate(382.560948 174.612796) scale(0.135 -0.135)">
      <defs>
       <path id="IBMPlexSans-5" d="M 2656 0 
L 3168 0 
L 3168 4736 
L 2656 4736 
L 2656 2765 
L 2630 2765 
C 2458 3181 2118 3379 1664 3379 
C 838 3379 320 2707 320 1651 
C 320 595 838 -77 1664 -77 
C 2118 -77 2432 128 2630 538 
L 2656 538 
L 2656 0 
z
M 1805 384 
C 1229 384 870 781 870 1370 
L 870 1933 
C 870 2522 1229 2918 1805 2918 
C 2272 2918 2656 2650 2656 2285 
L 2656 1056 
C 2656 627 2272 384 1805 384 
z
" transform="scale(0.015625)"/>
       <path id="IBMPlexSans-1" d="M 3232 0 
L 3232 448 
L 2854 448 
L 2854 2266 
C 2854 2963 2381 3379 1587 3379 
C 992 3379 595 3085 416 2733 
L 723 2445 
C 902 2746 1165 2938 1562 2938 
C 2086 2938 2342 2682 2342 2214 
L 2342 1888 
L 1690 1888 
C 730 1888 282 1542 282 922 
C 282 307 691 -77 1389 -77 
C 1850 -77 2202 134 2342 538 
L 2374 538 
C 2413 230 2566 0 2944 0 
L 3232 0 
z
M 1472 358 
C 1075 358 819 544 819 870 
L 819 1005 
C 819 1325 1082 1504 1664 1504 
L 2342 1504 
L 2342 960 
C 2342 621 1978 358 1472 358 
z
" transform="scale(0.015625)"/>
       <path id="IBMPlexSans-10" d="M 1056 0 
L 1056 2291 
C 1056 2714 1440 2918 1843 2918 
C 2330 2918 2554 2618 2554 2029 
L 2554 0 
L 3066 0 
L 3066 2291 
C 3066 2714 3437 2918 3840 2918 
C 4339 2918 4563 2611 4563 2029 
L 4563 0 
L 5075 0 
L 5075 2118 
C 5075 2918 4672 3379 4000 3379 
C 3437 3379 3117 3066 2995 2707 
L 2982 2707 
C 2803 3181 2406 3379 1971 3379 
C 1459 3379 1229 3104 1082 2765 
L 1056 2765 
L 1056 3302 
L 544 3302 
L 544 0 
L 1056 0 
z
" transform="scale(0.015625)"/>
       <path id="IBMPlexSans-12" d="M 1792 -77 
C 2675 -77 3283 602 3283 1651 
C 3283 2701 2675 3379 1792 3379 
C 909 3379 301 2701 301 1651 
C 301 602 909 -77 1792 -77 
z
M 1792 378 
C 1242 378 851 717 851 1414 
L 851 1888 
C 851 2586 1242 2925 1792 2925 
C 2342 2925 2733 2586 2733 1888 
L 2733 1414 
C 2733 717 2342 378 1792 378 
z
" transform="scale(0.015625)"/>
       <path id="IBMPlexSans-11" d="M 1056 0 
L 1056 2291 
C 1056 2714 1453 2918 1862 2918 
C 2355 2918 2611 2618 2611 2029 
L 2611 0 
L 3123 0 
L 3123 2118 
C 3123 2918 2694 3379 2016 3379 
C 1523 3379 1242 3136 1082 2765 
L 1056 2765 
L 1056 3302 
L 544 3302 
L 544 0 
L 1056 0 
z
" transform="scale(0.015625)"/>
      </defs>
      <use xlink:href="#DejaVuSans-af8" transform="translate(0 0.578125)"/>
      <use xlink:href="#DejaVuSans-Bold-5b" transform="translate(50 0.578125)"/>
      <use xlink:href="#DejaVuSans-af8" transform="translate(114.501953 0.578125)"/>
      <use xlink:href="#DejaVuSans-14" transform="translate(165.458984 -14.421826) scale(0.7)"/>
      <use xlink:href="#DejaVuSans-20" transform="translate(232.211914 0.578125)"/>
      <use xlink:href="#DejaVuSans-14" transform="translate(335.483398 0.578125)"/>
      <use xlink:href="#IBMPlexSans-3e1" transform="translate(399.106445 0.578125)"/>
      <use xlink:href="#IBMPlexSans-3e1" transform="translate(422.706421 0.578125)"/>
      <use xlink:href="#IBMPlexSans-3e1" transform="translate(446.306396 0.578125)"/>
      <use xlink:href="#IBMPlexSans-5" transform="translate(469.906372 0.578125)"/>
      <use xlink:href="#IBMPlexSans-c" transform="translate(527.906311 0.578125)"/>
      <use xlink:href="#IBMPlexSans-1" transform="translate(552.906281 0.578125)"/>
      <use xlink:href="#IBMPlexSans-10" transform="translate(606.306229 0.578125)"/>
      <use xlink:href="#IBMPlexSans-12" transform="translate(693.60614 0.578125)"/>
      <use xlink:href="#IBMPlexSans-11" transform="translate(749.606094 0.578125)"/>
      <use xlink:href="#IBMPlexSans-5" transform="translate(806.406036 0.578125)"/>
     </g>
    </g>
    <g id="line2d_12">
     <path d="M 350.160948 190.407796 
L 360.960948 190.407796 
L 371.760948 190.407796 
" style="fill: none; stroke-dasharray: 8.14,3.52; stroke-dashoffset: 0; stroke: #6e7f82; stroke-width: 2.2"/>
    </g>
    <g id="text_5">
     <!-- $\|\mathbf{x}\|_\infty=1$   square -->
     <g style="fill: #23373b" transform="translate(382.560948 195.132796) scale(0.135 -0.135)">
      <defs>
       <path id="DejaVuSans-ca8" d="M 2916 1091 
Q 2819 1203 2666 1466 
Q 2456 1091 2272 925 
Q 2041 725 1681 725 
Q 1259 725 981 1041 
Q 688 1372 688 1919 
Q 688 2444 981 2800 
Q 1244 3116 1688 3116 
Q 1916 3116 2084 3022 
Q 2281 2919 2416 2741 
Q 2541 2581 2666 2366 
Q 2875 2741 3059 2906 
Q 3291 3106 3650 3106 
Q 4072 3106 4350 2791 
Q 4644 2459 4644 1913 
Q 4644 1388 4350 1031 
Q 4088 716 3644 716 
Q 3416 716 3247 809 
Q 3078 894 2916 1091 
z
M 1647 1134 
Q 2163 1134 2472 1884 
Q 2075 2703 1647 2703 
Q 1334 2703 1175 2478 
Q 1003 2238 1003 1919 
Q 1003 1569 1175 1353 
Q 1350 1134 1647 1134 
z
M 3684 2697 
Q 3219 2697 2859 1947 
Q 3253 1128 3684 1128 
Q 3997 1128 4156 1353 
Q 4328 1594 4328 1913 
Q 4328 2263 4156 2478 
Q 3981 2697 3684 2697 
z
" transform="scale(0.015625)"/>
       <path id="IBMPlexSans-16" d="M 1536 -77 
C 2291 -77 2758 314 2758 954 
C 2758 1453 2477 1773 1747 1882 
L 1491 1920 
C 1082 1984 858 2112 858 2432 
C 858 2746 1082 2944 1504 2944 
C 1926 2944 2208 2746 2355 2541 
L 2694 2848 
C 2426 3181 2074 3379 1542 3379 
C 870 3379 365 3059 365 2406 
C 365 1792 819 1542 1427 1453 
L 1690 1414 
C 2125 1350 2266 1152 2266 896 
C 2266 557 2010 358 1574 358 
C 1158 358 851 544 595 864 
L 230 570 
C 525 179 928 -77 1536 -77 
z
" transform="scale(0.015625)"/>
       <path id="IBMPlexSans-14" d="M 2656 -1280 
L 3168 -1280 
L 3168 3302 
L 2656 3302 
L 2656 2765 
L 2630 2765 
C 2458 3181 2118 3379 1664 3379 
C 838 3379 320 2707 320 1651 
C 320 595 838 -77 1664 -77 
C 2118 -77 2432 128 2630 538 
L 2656 538 
L 2656 -1280 
z
M 1805 384 
C 1229 384 870 781 870 1370 
L 870 1933 
C 870 2522 1229 2918 1805 2918 
C 2272 2918 2656 2650 2656 2285 
L 2656 1056 
C 2656 627 2272 384 1805 384 
z
" transform="scale(0.015625)"/>
       <path id="IBMPlexSans-18" d="M 2579 0 
L 3091 0 
L 3091 3302 
L 2579 3302 
L 2579 1018 
C 2579 582 2182 384 1779 384 
C 1286 384 1024 685 1024 1274 
L 1024 3302 
L 512 3302 
L 512 1184 
C 512 384 947 -77 1626 -77 
C 2176 -77 2426 224 2554 538 
L 2579 538 
L 2579 0 
z
" transform="scale(0.015625)"/>
      </defs>
      <use xlink:href="#DejaVuSans-af8" transform="translate(0 0.578125)"/>
      <use xlink:href="#DejaVuSans-Bold-5b" transform="translate(50 0.578125)"/>
      <use xlink:href="#DejaVuSans-af8" transform="translate(114.501953 0.578125)"/>
      <use xlink:href="#DejaVuSans-ca8" transform="translate(165.458984 -14.421826) scale(0.7)"/>
      <use xlink:href="#DejaVuSans-20" transform="translate(245.986328 0.578125)"/>
      <use xlink:href="#DejaVuSans-14" transform="translate(349.257812 0.578125)"/>
      <use xlink:href="#IBMPlexSans-3e1" transform="translate(412.880859 0.578125)"/>
      <use xlink:href="#IBMPlexSans-3e1" transform="translate(436.480835 0.578125)"/>
      <use xlink:href="#IBMPlexSans-3e1" transform="translate(460.080811 0.578125)"/>
      <use xlink:href="#IBMPlexSans-16" transform="translate(483.680786 0.578125)"/>
      <use xlink:href="#IBMPlexSans-14" transform="translate(532.380737 0.578125)"/>
      <use xlink:href="#IBMPlexSans-18" transform="translate(590.380676 0.578125)"/>
      <use xlink:href="#IBMPlexSans-1" transform="translate(647.180618 0.578125)"/>
      <use xlink:href="#IBMPlexSans-15" transform="translate(700.580566 0.578125)"/>
      <use xlink:href="#IBMPlexSans-6" transform="translate(737.280533 0.578125)"/>
     </g>
    </g>
   </g>
  </g>
 </g>
 <defs>
  <clipPath id="p78d6a24d3d">
   <rect x="7.2" y="7.2" width="327.535592" height="327.535592"/>
  </clipPath>
 </defs>
</svg>
