<?xml version="1.0" encoding="utf-8" standalone="no"?>
<!DOCTYPE svg PUBLIC "-//W3C//DTD SVG 1.1//EN"
  "http://www.w3.org/Graphics/SVG/1.1/DTD/svg11.dtd">
<svg xmlns:xlink="http://www.w3.org/1999/xlink" width="377.1pt" height="230.616pt" viewBox="0 0 377.1 230.616" xmlns="http://www.w3.org/2000/svg" version="1.1">
 <metadata>
  <rdf:RDF xmlns:dc="http://purl.org/dc/elements/1.1/" xmlns:cc="http://creativecommons.org/ns#" xmlns:rdf="http://www.w3.org/1999/02/22-rdf-syntax-ns#">
   <cc:Work>
    <dc:type rdf:resource="http://purl.org/dc/dcmitype/StillImage"/>
    <dc:date>2026-08-11T19:49:59.810610</dc:date>
    <dc:format>image/svg+xml</dc:format>
    <dc:creator>
     <cc:Agent>
      <dc:title>Matplotlib v3.11.1, https://matplotlib.org/</dc:title>
     </cc:Agent>
    </dc:creator>
   </cc:Work>
  </rdf:RDF>
 </metadata>
 <defs>
  <style type="text/css">*{stroke-linejoin: round; stroke-linecap: butt}</style>
 </defs>
 <g id="figure_1">
  <g id="patch_1">
   <path d="M 0 230.616 
L 377.1 230.616 
L 377.1 0 
L 0 0 
L 0 230.616 
z
" style="fill: none"/>
  </g>
  <g id="axes_1">
   <g id="patch_2">
    <path d="M 116.01 159.63228 
C 126.109862 159.63228 135.79742 157.240182 142.939101 152.982819 
C 150.080782 148.725456 154.0935 142.950421 154.0935 136.9296 
C 154.0935 130.908779 150.080782 125.133744 142.939101 120.876381 
C 135.79742 116.619018 126.109862 114.22692 116.01 114.22692 
C 105.910138 114.22692 96.22258 116.619018 89.080899 120.876381 
C 81.939218 125.133744 77.9265 130.908779 77.9265 136.9296 
C 77.9265 142.950421 81.939218 148.725456 89.080899 152.982819 
C 96.22258 157.240182 105.910138 159.63228 116.01 159.63228 
z
" clip-path="url(#p0957cc71da)" style="fill: #ffffff; stroke: #eb811b; stroke-width: 2.2; stroke-linejoin: miter"/>
   </g>
   <g id="patch_3">
    <path d="M 261.09 159.63228 
C 271.189862 159.63228 280.87742 157.240182 288.019101 152.982819 
C 295.160782 148.725456 299.1735 142.950421 299.1735 136.9296 
C 299.1735 130.908779 295.160782 125.133744 288.019101 120.876381 
C 280.87742 116.619018 271.189862 114.22692 261.09 114.22692 
C 250.990138 114.22692 241.30258 116.619018 234.160899 120.876381 
C 227.019218 125.133744 223.0065 130.908779 223.0065 136.9296 
C 223.0065 142.950421 227.019218 148.725456 234.160899 152.982819 
C 241.30258 157.240182 250.990138 159.63228 261.09 159.63228 
z
" clip-path="url(#p0957cc71da)" style="fill: #ffffff; stroke: #2b6cb0; stroke-width: 2.2; stroke-linejoin: miter"/>
   </g>
   <g id="patch_4">
    <path d="M 157.704118 124.830465 
Q 188.547609 139.403186 217.57146 125.692322 
" clip-path="url(#p0957cc71da)" style="fill: none; stroke: #d64550; stroke-width: 1.8; stroke-linecap: round"/>
    <path d="M 211.759131 125.562552 
L 217.57146 125.692322 
L 213.980247 130.264323 
z
" clip-path="url(#p0957cc71da)" style="fill: #d64550; stroke: #d64550; stroke-width: 1.8; stroke-linecap: round"/>
   </g>
   <g id="patch_5">
    <path d="M 219.395882 149.028735 
Q 188.552391 134.456014 159.52854 148.166878 
" clip-path="url(#p0957cc71da)" style="fill: none; stroke: #14b03d; stroke-width: 1.8; stroke-linecap: round"/>
    <path d="M 165.340869 148.296648 
L 159.52854 148.166878 
L 163.119753 143.594877 
z
" clip-path="url(#p0957cc71da)" style="fill: #14b03d; stroke: #14b03d; stroke-width: 1.8; stroke-linecap: round"/>
   </g>
   <g id="patch_6">
    <path d="M 100.261307 113.394632 
Q 116.009153 61.731045 131.170168 111.464078 
" clip-path="url(#p0957cc71da)" style="fill: none; stroke: #eb811b; stroke-width: 1.8; stroke-linecap: round"/>
    <path d="M 132.140856 105.731908 
L 131.170168 111.464078 
L 127.166845 107.248225 
z
" clip-path="url(#p0957cc71da)" style="fill: #eb811b; stroke: #eb811b; stroke-width: 1.8; stroke-linecap: round"/>
   </g>
   <g id="patch_7">
    <path d="M 245.341307 113.394632 
Q 261.089153 61.731045 276.250168 111.464078 
" clip-path="url(#p0957cc71da)" style="fill: none; stroke: #2b6cb0; stroke-width: 1.8; stroke-linecap: round"/>
    <path d="M 277.220856 105.731908 
L 276.250168 111.464078 
L 272.246845 107.248225 
z
" clip-path="url(#p0957cc71da)" style="fill: #2b6cb0; stroke: #2b6cb0; stroke-width: 1.8; stroke-linecap: round"/>
   </g>
   <g id="text_1">
    <!-- sunny -->
    <g style="fill: #eb811b" transform="translate(98.576797 140.5696) scale(0.13 -0.13)">
     <defs>
      <path id="IBMPlexSans-16" d="M 1536 -77 
C 2291 -77 2758 314 2758 954 
C 2758 1453 2477 1773 1747 1882 
L 1491 1920 
C 1082 1984 858 2112 858 2432 
C 858 2746 1082 2944 1504 2944 
C 1926 2944 2208 2746 2355 2541 
L 2694 2848 
C 2426 3181 2074 3379 1542 3379 
C 870 3379 365 3059 365 2406 
C 365 1792 819 1542 1427 1453 
L 1690 1414 
C 2125 1350 2266 1152 2266 896 
C 2266 557 2010 358 1574 358 
C 1158 358 851 544 595 864 
L 230 570 
C 525 179 928 -77 1536 -77 
z
" transform="scale(0.015625)"/>
      <path id="IBMPlexSans-18" d="M 2579 0 
L 3091 0 
L 3091 3302 
L 2579 3302 
L 2579 1018 
C 2579 582 2182 384 1779 384 
C 1286 384 1024 685 1024 1274 
L 1024 3302 
L 512 3302 
L 512 1184 
C 512 384 947 -77 1626 -77 
C 2176 -77 2426 224 2554 538 
L 2579 538 
L 2579 0 
z
" transform="scale(0.015625)"/>
      <path id="IBMPlexSans-11" d="M 1056 0 
L 1056 2291 
C 1056 2714 1453 2918 1862 2918 
C 2355 2918 2611 2618 2611 2029 
L 2611 0 
L 3123 0 
L 3123 2118 
C 3123 2918 2694 3379 2016 3379 
C 1523 3379 1242 3136 1082 2765 
L 1056 2765 
L 1056 3302 
L 544 3302 
L 544 0 
L 1056 0 
z
" transform="scale(0.015625)"/>
      <path id="IBMPlexSans-1c" d="M 1779 1056 
L 1600 518 
L 1568 518 
L 1414 1056 
L 621 3302 
L 109 3302 
L 1344 -128 
L 1094 -832 
L 576 -832 
L 576 -1280 
L 838 -1280 
C 1325 -1280 1459 -1165 1606 -768 
L 3085 3302 
L 2579 3302 
L 1779 1056 
z
" transform="scale(0.015625)"/>
     </defs>
     <use xlink:href="#IBMPlexSans-16"/>
     <use xlink:href="#IBMPlexSans-18" transform="translate(48.703125 0)"/>
     <use xlink:href="#IBMPlexSans-11" transform="translate(105.5 0)"/>
     <use xlink:href="#IBMPlexSans-11" transform="translate(162.296875 0)"/>
     <use xlink:href="#IBMPlexSans-1c" transform="translate(218.296875 0)"/>
    </g>
   </g>
   <g id="text_2">
    <!-- rainy -->
    <g style="fill: #2b6cb0" transform="translate(246.750391 140.5696) scale(0.13 -0.13)">
     <defs>
      <path id="IBMPlexSans-15" d="M 1056 0 
L 1056 2240 
C 1056 2554 1389 2790 1939 2790 
L 2240 2790 
L 2240 3302 
L 2042 3302 
C 1504 3302 1203 3008 1088 2694 
L 1056 2694 
L 1056 3302 
L 544 3302 
L 544 0 
L 1056 0 
z
" transform="scale(0.015625)"/>
      <path id="IBMPlexSans-1" d="M 3232 0 
L 3232 448 
L 2854 448 
L 2854 2266 
C 2854 2963 2381 3379 1587 3379 
C 992 3379 595 3085 416 2733 
L 723 2445 
C 902 2746 1165 2938 1562 2938 
C 2086 2938 2342 2682 2342 2214 
L 2342 1888 
L 1690 1888 
C 730 1888 282 1542 282 922 
C 282 307 691 -77 1389 -77 
C 1850 -77 2202 134 2342 538 
L 2374 538 
C 2413 230 2566 0 2944 0 
L 3232 0 
z
M 1472 358 
C 1075 358 819 544 819 870 
L 819 1005 
C 819 1325 1082 1504 1664 1504 
L 2342 1504 
L 2342 960 
C 2342 621 1978 358 1472 358 
z
" transform="scale(0.015625)"/>
      <path id="IBMPlexSans-c" d="M 800 4077 
C 1018 4077 1114 4192 1114 4365 
L 1114 4448 
C 1114 4621 1018 4736 800 4736 
C 582 4736 486 4621 486 4448 
L 486 4365 
C 486 4192 582 4077 800 4077 
z
M 544 0 
L 1056 0 
L 1056 3302 
L 544 3302 
L 544 0 
z
" transform="scale(0.015625)"/>
     </defs>
     <use xlink:href="#IBMPlexSans-15"/>
     <use xlink:href="#IBMPlexSans-1" transform="translate(36.296875 0)"/>
     <use xlink:href="#IBMPlexSans-c" transform="translate(89.703125 0)"/>
     <use xlink:href="#IBMPlexSans-11" transform="translate(114.703125 0)"/>
     <use xlink:href="#IBMPlexSans-1c" transform="translate(170.703125 0)"/>
    </g>
   </g>
   <g id="text_3">
    <!-- 0.20 -->
    <g style="fill: #d64550" transform="translate(178.189844 102.97288) scale(0.1 -0.1)">
     <defs>
      <path id="IBMPlexSans-38" d="M 1920 -77 
C 2989 -77 3456 774 3456 2234 
C 3456 3693 2989 4544 1920 4544 
C 851 4544 384 3693 384 2234 
C 384 774 851 -77 1920 -77 
z
M 1920 390 
C 1222 390 947 1005 947 1869 
L 947 2598 
C 947 3462 1222 4077 1920 4077 
C 2618 4077 2893 3462 2893 2598 
L 2893 1869 
C 2893 1005 2618 390 1920 390 
z
" transform="scale(0.015625)"/>
      <path id="IBMPlexSans-5a" d="M 870 -77 
C 1139 -77 1261 77 1261 294 
L 1261 378 
C 1261 595 1139 749 870 749 
C 602 749 480 595 480 378 
L 480 294 
C 480 77 602 -77 870 -77 
z
" transform="scale(0.015625)"/>
      <path id="IBMPlexSans-3c" d="M 3411 474 
L 1062 474 
L 2266 1555 
C 2835 2067 3245 2554 3245 3245 
C 3245 4006 2746 4544 1875 4544 
C 1011 4544 614 4019 442 3494 
L 922 3309 
C 1043 3731 1299 4064 1850 4064 
C 2400 4064 2675 3725 2675 3232 
L 2675 3155 
C 2675 2726 2355 2278 1939 1894 
L 480 550 
L 480 0 
L 3411 0 
L 3411 474 
z
" transform="scale(0.015625)"/>
     </defs>
     <use xlink:href="#IBMPlexSans-38"/>
     <use xlink:href="#IBMPlexSans-5a" transform="translate(60 0)"/>
     <use xlink:href="#IBMPlexSans-3c" transform="translate(87.203125 0)"/>
     <use xlink:href="#IBMPlexSans-38" transform="translate(147.203125 0)"/>
    </g>
   </g>
   <g id="text_4">
    <!-- 0.40 -->
    <g style="fill: #14b03d" transform="translate(178.189844 176.48632) scale(0.1 -0.1)">
     <defs>
      <path id="IBMPlexSans-3e" d="M 2912 0 
L 2912 877 
L 3558 877 
L 3558 1325 
L 2912 1325 
L 2912 4467 
L 2112 4467 
L 243 1350 
L 243 877 
L 2400 877 
L 2400 0 
L 2912 0 
z
M 2368 4051 
L 2400 4051 
L 2400 1325 
L 749 1325 
L 2368 4051 
z
" transform="scale(0.015625)"/>
     </defs>
     <use xlink:href="#IBMPlexSans-38"/>
     <use xlink:href="#IBMPlexSans-5a" transform="translate(60 0)"/>
     <use xlink:href="#IBMPlexSans-3e" transform="translate(87.203125 0)"/>
     <use xlink:href="#IBMPlexSans-38" transform="translate(147.203125 0)"/>
    </g>
   </g>
   <g id="text_5">
    <!-- 0.80 -->
    <g style="fill: #eb811b" transform="translate(104.613828 61.254) scale(0.11 -0.11)">
     <defs>
      <path id="IBMPlexSans-42" d="M 1920 -77 
C 2938 -77 3469 480 3469 1216 
C 3469 1824 3104 2176 2566 2323 
L 2566 2374 
C 3034 2534 3334 2912 3334 3424 
C 3334 4102 2810 4544 1920 4544 
C 1030 4544 506 4102 506 3424 
C 506 2912 806 2534 1274 2374 
L 1274 2323 
C 736 2176 371 1824 371 1216 
C 371 480 902 -77 1920 -77 
z
M 1920 390 
C 1299 390 941 685 941 1190 
L 941 1325 
C 941 1830 1299 2125 1920 2125 
C 2541 2125 2899 1830 2899 1325 
L 2899 1190 
C 2899 685 2541 390 1920 390 
z
M 1920 2573 
C 1363 2573 1062 2822 1062 3277 
L 1062 3373 
C 1062 3827 1363 4077 1920 4077 
C 2477 4077 2778 3827 2778 3373 
L 2778 3277 
C 2778 2822 2477 2573 1920 2573 
z
" transform="scale(0.015625)"/>
     </defs>
     <use xlink:href="#IBMPlexSans-38"/>
     <use xlink:href="#IBMPlexSans-5a" transform="translate(60 0)"/>
     <use xlink:href="#IBMPlexSans-42" transform="translate(87.203125 0)"/>
     <use xlink:href="#IBMPlexSans-38" transform="translate(147.203125 0)"/>
    </g>
   </g>
   <g id="text_6">
    <!-- 0.60 -->
    <g style="fill: #2b6cb0" transform="translate(249.693828 61.254) scale(0.11 -0.11)">
     <defs>
      <path id="IBMPlexSans-40" d="M 1926 -77 
C 2822 -77 3411 525 3411 1402 
C 3411 2246 2861 2778 2093 2778 
C 1549 2778 1229 2502 1018 2138 
L 986 2150 
C 1229 3187 1760 3770 2714 4467 
L 2022 4467 
C 1306 4000 429 2963 429 1638 
C 429 576 998 -77 1926 -77 
z
M 1920 390 
C 1331 390 986 730 986 1331 
L 986 1382 
C 986 1984 1331 2323 1920 2323 
C 2509 2323 2854 1984 2854 1382 
L 2854 1331 
C 2854 730 2509 390 1920 390 
z
" transform="scale(0.015625)"/>
     </defs>
     <use xlink:href="#IBMPlexSans-38"/>
     <use xlink:href="#IBMPlexSans-5a" transform="translate(60 0)"/>
     <use xlink:href="#IBMPlexSans-40" transform="translate(87.203125 0)"/>
     <use xlink:href="#IBMPlexSans-38" transform="translate(147.203125 0)"/>
    </g>
   </g>
  </g>
 </g>
 <defs>
  <clipPath id="p0957cc71da">
   <rect x="7.2" y="7.2" width="362.7" height="216.216"/>
  </clipPath>
 </defs>
</svg>
