<?xml version="1.0" encoding="utf-8" standalone="no"?>
<!DOCTYPE svg PUBLIC "-//W3C//DTD SVG 1.1//EN"
  "http://www.w3.org/Graphics/SVG/1.1/DTD/svg11.dtd">
<svg xmlns:xlink="http://www.w3.org/1999/xlink" width="264.423322pt" height="278.393158pt" viewBox="0 0 264.423322 278.393158" xmlns="http://www.w3.org/2000/svg" version="1.1">
 <metadata>
  <rdf:RDF xmlns:dc="http://purl.org/dc/elements/1.1/" xmlns:cc="http://creativecommons.org/ns#" xmlns:rdf="http://www.w3.org/1999/02/22-rdf-syntax-ns#">
   <cc:Work>
    <dc:type rdf:resource="http://purl.org/dc/dcmitype/StillImage"/>
    <dc:date>2026-08-11T19:32:37.405838</dc:date>
    <dc:format>image/svg+xml</dc:format>
    <dc:creator>
     <cc:Agent>
      <dc:title>Matplotlib v3.11.1, https://matplotlib.org/</dc:title>
     </cc:Agent>
    </dc:creator>
   </cc:Work>
  </rdf:RDF>
 </metadata>
 <defs>
  <style type="text/css">*{stroke-linejoin: round; stroke-linecap: butt}</style>
 </defs>
 <g id="figure_1">
  <g id="patch_1">
   <path d="M 0 278.393158 
L 264.423322 278.393158 
L 264.423322 0 
L 0 0 
L 0 278.393158 
z
" style="fill: none"/>
  </g>
  <g id="axes_1">
   <g id="patch_2">
    <path d="M 47.864375 236.193158 
L 257.223322 236.193158 
L 257.223322 8.889158 
L 47.864375 8.889158 
L 47.864375 236.193158 
z
" style="fill: none"/>
   </g>
   <g id="patch_3">
    <path d="M 62.818586 221.238947 
L 182.45227 221.238947 
L 182.45227 101.605263 
L 122.635428 41.788421 
L 62.818586 41.788421 
z
" clip-path="url(#p8aa0621d0a)" style="fill: #e9f4f4; stroke: #2c7a7b; stroke-width: 2.2; stroke-linejoin: miter"/>
   </g>
   <g id="matplotlib.axis_1">
    <g id="xtick_1">
     <g id="line2d_1">
      <path d="M 62.818586 236.193158 
L 62.818586 8.889158 
" clip-path="url(#p8aa0621d0a)" style="fill: none; stroke: #b0b0b0; stroke-opacity: 0.14; stroke-width: 0.8; stroke-linecap: square"/>
     </g>
     <g id="line2d_2">
      <defs>
       <path id="m46e106cef0" d="M 0 0 
L 0 3.5 
" style="stroke: #23373b; stroke-width: 0.8"/>
      </defs>
      <g>
       <use xlink:href="#m46e106cef0" x="62.818586" y="236.193158" style="fill: #23373b; stroke: #23373b; stroke-width: 0.8"/>
      </g>
     </g>
     <g id="text_1">
      <!-- 0 -->
      <g style="fill: #23373b" transform="translate(59.218586 252.553158) scale(0.12 -0.12)">
       <defs>
        <path id="IBMPlexSans-38" d="M 1920 -77 
C 2989 -77 3456 774 3456 2234 
C 3456 3693 2989 4544 1920 4544 
C 851 4544 384 3693 384 2234 
C 384 774 851 -77 1920 -77 
z
M 1920 390 
C 1222 390 947 1005 947 1869 
L 947 2598 
C 947 3462 1222 4077 1920 4077 
C 2618 4077 2893 3462 2893 2598 
L 2893 1869 
C 2893 1005 2618 390 1920 390 
z
" transform="scale(0.015625)"/>
       </defs>
       <use xlink:href="#IBMPlexSans-38"/>
      </g>
     </g>
    </g>
    <g id="xtick_2">
     <g id="line2d_3">
      <path d="M 122.635428 236.193158 
L 122.635428 8.889158 
" clip-path="url(#p8aa0621d0a)" style="fill: none; stroke: #b0b0b0; stroke-opacity: 0.14; stroke-width: 0.8; stroke-linecap: square"/>
     </g>
     <g id="line2d_4">
      <g>
       <use xlink:href="#m46e106cef0" x="122.635428" y="236.193158" style="fill: #23373b; stroke: #23373b; stroke-width: 0.8"/>
      </g>
     </g>
     <g id="text_2">
      <!-- 1 -->
      <g style="fill: #23373b" transform="translate(119.035428 252.553158) scale(0.12 -0.12)">
       <defs>
        <path id="IBMPlexSans-3b" d="M 3501 0 
L 3501 474 
L 2349 474 
L 2349 4467 
L 1510 4467 
L 326 3360 
L 640 3021 
L 1766 4070 
L 1811 4070 
L 1811 474 
L 563 474 
L 563 0 
L 3501 0 
z
" transform="scale(0.015625)"/>
       </defs>
       <use xlink:href="#IBMPlexSans-3b"/>
      </g>
     </g>
    </g>
    <g id="xtick_3">
     <g id="line2d_5">
      <path d="M 182.45227 236.193158 
L 182.45227 8.889158 
" clip-path="url(#p8aa0621d0a)" style="fill: none; stroke: #b0b0b0; stroke-opacity: 0.14; stroke-width: 0.8; stroke-linecap: square"/>
     </g>
     <g id="line2d_6">
      <g>
       <use xlink:href="#m46e106cef0" x="182.45227" y="236.193158" style="fill: #23373b; stroke: #23373b; stroke-width: 0.8"/>
      </g>
     </g>
     <g id="text_3">
      <!-- 2 -->
      <g style="fill: #23373b" transform="translate(178.85227 252.553158) scale(0.12 -0.12)">
       <defs>
        <path id="IBMPlexSans-3c" d="M 3411 474 
L 1062 474 
L 2266 1555 
C 2835 2067 3245 2554 3245 3245 
C 3245 4006 2746 4544 1875 4544 
C 1011 4544 614 4019 442 3494 
L 922 3309 
C 1043 3731 1299 4064 1850 4064 
C 2400 4064 2675 3725 2675 3232 
L 2675 3155 
C 2675 2726 2355 2278 1939 1894 
L 480 550 
L 480 0 
L 3411 0 
L 3411 474 
z
" transform="scale(0.015625)"/>
       </defs>
       <use xlink:href="#IBMPlexSans-3c"/>
      </g>
     </g>
    </g>
    <g id="xtick_4">
     <g id="line2d_7">
      <path d="M 242.269112 236.193158 
L 242.269112 8.889158 
" clip-path="url(#p8aa0621d0a)" style="fill: none; stroke: #b0b0b0; stroke-opacity: 0.14; stroke-width: 0.8; stroke-linecap: square"/>
     </g>
     <g id="line2d_8">
      <g>
       <use xlink:href="#m46e106cef0" x="242.269112" y="236.193158" style="fill: #23373b; stroke: #23373b; stroke-width: 0.8"/>
      </g>
     </g>
     <g id="text_4">
      <!-- 3 -->
      <g style="fill: #23373b" transform="translate(238.669112 252.553158) scale(0.12 -0.12)">
       <defs>
        <path id="IBMPlexSans-3d" d="M 1184 2573 
L 1184 2106 
L 1709 2106 
C 2336 2106 2669 1805 2669 1280 
L 2669 1229 
C 2669 704 2336 403 1709 403 
C 1165 403 902 640 672 992 
L 269 685 
C 544 301 941 -77 1715 -77 
C 2624 -77 3232 454 3232 1222 
C 3232 1894 2771 2253 2291 2349 
L 2291 2374 
C 2765 2496 3149 2842 3149 3418 
C 3149 4141 2547 4544 1792 4544 
C 1075 4544 685 4173 461 3814 
L 858 3507 
C 1043 3846 1318 4064 1779 4064 
C 2253 4064 2579 3827 2579 3360 
L 2579 3315 
C 2579 2886 2272 2573 1670 2573 
L 1184 2573 
z
" transform="scale(0.015625)"/>
       </defs>
       <use xlink:href="#IBMPlexSans-3d"/>
      </g>
     </g>
    </g>
    <g id="text_5">
     <!-- $x_1$ -->
     <g style="fill: #23373b" transform="translate(146.123849 268.553158) scale(0.12 -0.12)">
      <defs>
       <path id="DejaVuSans-Oblique-5b" d="M 3841 3500 
L 2234 1784 
L 3219 0 
L 2559 0 
L 1819 1388 
L 531 0 
L -166 0 
L 1556 1844 
L 641 3500 
L 1300 3500 
L 1972 2234 
L 3144 3500 
L 3841 3500 
z
" transform="scale(0.015625)"/>
       <path id="DejaVuSans-14" d="M 794 531 
L 1825 531 
L 1825 4091 
L 703 3866 
L 703 4441 
L 1819 4666 
L 2450 4666 
L 2450 531 
L 3481 531 
L 3481 0 
L 794 0 
L 794 531 
z
" transform="scale(0.015625)"/>
      </defs>
      <use xlink:href="#DejaVuSans-Oblique-5b" transform="translate(0 0.3125)"/>
      <use xlink:href="#DejaVuSans-14" transform="translate(59.179688 -14.687451) scale(0.7)"/>
     </g>
    </g>
   </g>
   <g id="matplotlib.axis_2">
    <g id="ytick_1">
     <g id="line2d_9">
      <path d="M 47.864375 221.238947 
L 257.223322 221.238947 
" clip-path="url(#p8aa0621d0a)" style="fill: none; stroke: #b0b0b0; stroke-opacity: 0.14; stroke-width: 0.8; stroke-linecap: square"/>
     </g>
     <g id="line2d_10">
      <defs>
       <path id="maedbcd9162" d="M 0 0 
L -3.5 0 
" style="stroke: #23373b; stroke-width: 0.8"/>
      </defs>
      <g>
       <use xlink:href="#maedbcd9162" x="47.864375" y="221.238947" style="fill: #23373b; stroke: #23373b; stroke-width: 0.8"/>
      </g>
     </g>
     <g id="text_6">
      <!-- 0.0 -->
      <g style="fill: #23373b" transform="translate(23.2 225.918947) scale(0.12 -0.12)">
       <defs>
        <path id="IBMPlexSans-5a" d="M 870 -77 
C 1139 -77 1261 77 1261 294 
L 1261 378 
C 1261 595 1139 749 870 749 
C 602 749 480 595 480 378 
L 480 294 
C 480 77 602 -77 870 -77 
z
" transform="scale(0.015625)"/>
       </defs>
       <use xlink:href="#IBMPlexSans-38"/>
       <use xlink:href="#IBMPlexSans-5a" transform="translate(60 0)"/>
       <use xlink:href="#IBMPlexSans-38" transform="translate(87.203125 0)"/>
      </g>
     </g>
    </g>
    <g id="ytick_2">
     <g id="line2d_11">
      <path d="M 47.864375 191.330526 
L 257.223322 191.330526 
" clip-path="url(#p8aa0621d0a)" style="fill: none; stroke: #b0b0b0; stroke-opacity: 0.14; stroke-width: 0.8; stroke-linecap: square"/>
     </g>
     <g id="line2d_12">
      <g>
       <use xlink:href="#maedbcd9162" x="47.864375" y="191.330526" style="fill: #23373b; stroke: #23373b; stroke-width: 0.8"/>
      </g>
     </g>
     <g id="text_7">
      <!-- 0.5 -->
      <g style="fill: #23373b" transform="translate(23.2 196.010526) scale(0.12 -0.12)">
       <defs>
        <path id="IBMPlexSans-3f" d="M 3187 4467 
L 794 4467 
L 634 2010 
L 1088 1946 
C 1274 2150 1478 2323 1888 2323 
C 2496 2323 2822 1984 2822 1395 
L 2822 1331 
C 2822 742 2496 403 1888 403 
C 1350 403 1126 640 896 992 
L 493 685 
C 762 301 1146 -77 1888 -77 
C 2829 -77 3392 531 3392 1402 
C 3392 2266 2829 2784 2061 2784 
C 1594 2784 1357 2592 1146 2291 
L 1101 2291 
L 1229 3994 
L 3187 3994 
L 3187 4467 
z
" transform="scale(0.015625)"/>
       </defs>
       <use xlink:href="#IBMPlexSans-38"/>
       <use xlink:href="#IBMPlexSans-5a" transform="translate(60 0)"/>
       <use xlink:href="#IBMPlexSans-3f" transform="translate(87.203125 0)"/>
      </g>
     </g>
    </g>
    <g id="ytick_3">
     <g id="line2d_13">
      <path d="M 47.864375 161.422105 
L 257.223322 161.422105 
" clip-path="url(#p8aa0621d0a)" style="fill: none; stroke: #b0b0b0; stroke-opacity: 0.14; stroke-width: 0.8; stroke-linecap: square"/>
     </g>
     <g id="line2d_14">
      <g>
       <use xlink:href="#maedbcd9162" x="47.864375" y="161.422105" style="fill: #23373b; stroke: #23373b; stroke-width: 0.8"/>
      </g>
     </g>
     <g id="text_8">
      <!-- 1.0 -->
      <g style="fill: #23373b" transform="translate(23.2 166.102105) scale(0.12 -0.12)">
       <use xlink:href="#IBMPlexSans-3b"/>
       <use xlink:href="#IBMPlexSans-5a" transform="translate(60 0)"/>
       <use xlink:href="#IBMPlexSans-38" transform="translate(87.203125 0)"/>
      </g>
     </g>
    </g>
    <g id="ytick_4">
     <g id="line2d_15">
      <path d="M 47.864375 131.513684 
L 257.223322 131.513684 
" clip-path="url(#p8aa0621d0a)" style="fill: none; stroke: #b0b0b0; stroke-opacity: 0.14; stroke-width: 0.8; stroke-linecap: square"/>
     </g>
     <g id="line2d_16">
      <g>
       <use xlink:href="#maedbcd9162" x="47.864375" y="131.513684" style="fill: #23373b; stroke: #23373b; stroke-width: 0.8"/>
      </g>
     </g>
     <g id="text_9">
      <!-- 1.5 -->
      <g style="fill: #23373b" transform="translate(23.2 136.193684) scale(0.12 -0.12)">
       <use xlink:href="#IBMPlexSans-3b"/>
       <use xlink:href="#IBMPlexSans-5a" transform="translate(60 0)"/>
       <use xlink:href="#IBMPlexSans-3f" transform="translate(87.203125 0)"/>
      </g>
     </g>
    </g>
    <g id="ytick_5">
     <g id="line2d_17">
      <path d="M 47.864375 101.605263 
L 257.223322 101.605263 
" clip-path="url(#p8aa0621d0a)" style="fill: none; stroke: #b0b0b0; stroke-opacity: 0.14; stroke-width: 0.8; stroke-linecap: square"/>
     </g>
     <g id="line2d_18">
      <g>
       <use xlink:href="#maedbcd9162" x="47.864375" y="101.605263" style="fill: #23373b; stroke: #23373b; stroke-width: 0.8"/>
      </g>
     </g>
     <g id="text_10">
      <!-- 2.0 -->
      <g style="fill: #23373b" transform="translate(23.2 106.285263) scale(0.12 -0.12)">
       <use xlink:href="#IBMPlexSans-3c"/>
       <use xlink:href="#IBMPlexSans-5a" transform="translate(60 0)"/>
       <use xlink:href="#IBMPlexSans-38" transform="translate(87.203125 0)"/>
      </g>
     </g>
    </g>
    <g id="ytick_6">
     <g id="line2d_19">
      <path d="M 47.864375 71.696842 
L 257.223322 71.696842 
" clip-path="url(#p8aa0621d0a)" style="fill: none; stroke: #b0b0b0; stroke-opacity: 0.14; stroke-width: 0.8; stroke-linecap: square"/>
     </g>
     <g id="line2d_20">
      <g>
       <use xlink:href="#maedbcd9162" x="47.864375" y="71.696842" style="fill: #23373b; stroke: #23373b; stroke-width: 0.8"/>
      </g>
     </g>
     <g id="text_11">
      <!-- 2.5 -->
      <g style="fill: #23373b" transform="translate(23.2 76.376842) scale(0.12 -0.12)">
       <use xlink:href="#IBMPlexSans-3c"/>
       <use xlink:href="#IBMPlexSans-5a" transform="translate(60 0)"/>
       <use xlink:href="#IBMPlexSans-3f" transform="translate(87.203125 0)"/>
      </g>
     </g>
    </g>
    <g id="ytick_7">
     <g id="line2d_21">
      <path d="M 47.864375 41.788421 
L 257.223322 41.788421 
" clip-path="url(#p8aa0621d0a)" style="fill: none; stroke: #b0b0b0; stroke-opacity: 0.14; stroke-width: 0.8; stroke-linecap: square"/>
     </g>
     <g id="line2d_22">
      <g>
       <use xlink:href="#maedbcd9162" x="47.864375" y="41.788421" style="fill: #23373b; stroke: #23373b; stroke-width: 0.8"/>
      </g>
     </g>
     <g id="text_12">
      <!-- 3.0 -->
      <g style="fill: #23373b" transform="translate(23.2 46.468421) scale(0.12 -0.12)">
       <use xlink:href="#IBMPlexSans-3d"/>
       <use xlink:href="#IBMPlexSans-5a" transform="translate(60 0)"/>
       <use xlink:href="#IBMPlexSans-38" transform="translate(87.203125 0)"/>
      </g>
     </g>
    </g>
    <g id="ytick_8">
     <g id="line2d_23">
      <path d="M 47.864375 11.88 
L 257.223322 11.88 
" clip-path="url(#p8aa0621d0a)" style="fill: none; stroke: #b0b0b0; stroke-opacity: 0.14; stroke-width: 0.8; stroke-linecap: square"/>
     </g>
     <g id="line2d_24">
      <g>
       <use xlink:href="#maedbcd9162" x="47.864375" y="11.88" style="fill: #23373b; stroke: #23373b; stroke-width: 0.8"/>
      </g>
     </g>
     <g id="text_13">
      <!-- 3.5 -->
      <g style="fill: #23373b" transform="translate(23.2 16.56) scale(0.12 -0.12)">
       <use xlink:href="#IBMPlexSans-3d"/>
       <use xlink:href="#IBMPlexSans-5a" transform="translate(60 0)"/>
       <use xlink:href="#IBMPlexSans-3f" transform="translate(87.203125 0)"/>
      </g>
     </g>
    </g>
    <g id="text_14">
     <!-- $x_2$ -->
     <g style="fill: #23373b" transform="translate(16.56 128.961158) rotate(-90) scale(0.12 -0.12)">
      <defs>
       <path id="DejaVuSans-15" d="M 1228 531 
L 3431 531 
L 3431 0 
L 469 0 
L 469 531 
Q 828 903 1448 1529 
Q 2069 2156 2228 2338 
Q 2531 2678 2651 2914 
Q 2772 3150 2772 3378 
Q 2772 3750 2511 3984 
Q 2250 4219 1831 4219 
Q 1534 4219 1204 4116 
Q 875 4013 500 3803 
L 500 4441 
Q 881 4594 1212 4672 
Q 1544 4750 1819 4750 
Q 2544 4750 2975 4387 
Q 3406 4025 3406 3419 
Q 3406 3131 3298 2873 
Q 3191 2616 2906 2266 
Q 2828 2175 2409 1742 
Q 1991 1309 1228 531 
z
" transform="scale(0.015625)"/>
      </defs>
      <use xlink:href="#DejaVuSans-Oblique-5b" transform="translate(0 0.3125)"/>
      <use xlink:href="#DejaVuSans-15" transform="translate(59.179688 -14.687451) scale(0.7)"/>
     </g>
    </g>
   </g>
   <g id="QuadContourSet_1">
    <path d="M 254.23248 161.421533 
L 251.869271 162.460023 
L 249.589164 163.221583 
L 247.731837 163.679374 
L 244.945847 164.107546 
L 242.159857 164.242607 
L 239.373867 164.084557 
L 236.587878 163.633396 
L 234.730551 163.157846 
L 231.944561 162.169349 
L 230.087234 161.309033 
L 228.229908 160.262997 
L 226.372581 159.004962 
L 224.407167 157.407002 
L 222.385331 155.385794 
L 220.734902 153.364585 
L 219.386183 151.343377 
L 218.27823 149.322169 
L 217.383908 147.30096 
L 216.680011 145.279752 
L 216.146576 143.258544 
L 215.785126 141.237335 
L 215.577397 139.216127 
L 215.523387 137.194919 
L 215.623097 135.17371 
L 215.876527 133.152502 
L 216.288254 131.131293 
L 217.085948 128.48548 
L 218.014611 126.216652 
L 218.943275 124.407786 
L 219.871938 122.872376 
L 221.194589 121.025252 
L 222.943007 119.004043 
L 225.103835 116.982835 
L 226.38341 115.972231 
L 228.229908 114.728497 
L 230.087234 113.683315 
L 231.944561 112.81933 
L 234.730551 111.830403 
L 237.516541 111.173674 
L 240.302531 110.818564 
L 243.088521 110.759557 
L 245.874511 110.98979 
L 248.6605 111.52393 
L 250.517827 112.050083 
L 253.303817 113.129597 
L 254.23248 113.573626 
L 254.23248 113.573626 
" clip-path="url(#p8aa0621d0a)" style="fill: none; stroke: #eb811b; stroke-width: 1.1"/>
    <path d="M 254.23248 196.101875 
L 250.517827 196.740102 
L 246.803174 197.138279 
L 243.088521 197.304467 
L 239.373867 197.240027 
L 235.659214 196.944957 
L 231.944561 196.412364 
L 228.229908 195.640124 
L 224.515255 194.615445 
L 220.800601 193.324608 
L 217.085948 191.752608 
L 213.371295 189.867717 
L 210.585305 188.229338 
L 207.799315 186.379531 
L 205.013325 184.290841 
L 201.930302 181.661503 
L 199.441345 179.251749 
L 197.014117 176.608482 
L 194.56135 173.576669 
L 192.413578 170.544857 
L 190.531448 167.513044 
L 188.887299 164.481231 
L 187.368723 161.240566 
L 185.865406 157.407002 
L 184.884995 154.37519 
L 184.079137 151.343377 
L 183.263224 147.30096 
L 182.725406 143.200298 
L 182.478433 139.216127 
L 182.498673 135.17371 
L 182.792263 131.131293 
L 183.366013 127.088877 
L 184.22534 123.04646 
L 185.065408 120.014647 
L 186.081159 116.982835 
L 187.368723 113.750071 
L 188.682237 110.91921 
L 190.294964 107.887397 
L 192.143326 104.855585 
L 194.254713 101.823772 
L 196.661048 98.79196 
L 199.441345 95.736375 
L 202.227335 93.060185 
L 205.013325 90.697385 
L 207.799315 88.60962 
L 210.738493 86.664709 
L 214.299958 84.620438 
L 218.014611 82.818003 
L 220.939336 81.611689 
L 224.515255 80.375511 
L 228.229908 79.350973 
L 231.944561 78.576317 
L 235.659214 78.046993 
L 239.373867 77.74989 
L 243.088521 77.685005 
L 246.803174 77.852339 
L 250.517827 78.251893 
L 254.23248 78.888922 
L 254.23248 78.888922 
" clip-path="url(#p8aa0621d0a)" style="fill: none; stroke: #eb811b; stroke-width: 1.1"/>
    <path d="M 254.23248 221.238122 
L 249.589164 221.770554 
L 244.945847 222.046574 
L 240.302531 222.066182 
L 235.659214 221.829378 
L 231.015898 221.336162 
L 226.372581 220.580592 
L 221.729265 219.55613 
L 218.014611 218.535934 
L 213.461921 217.032649 
L 209.656642 215.548438 
L 205.941989 213.891381 
L 202.167339 211.979628 
L 198.512682 209.893036 
L 194.798029 207.512199 
L 191.083376 204.845742 
L 187.368723 201.854028 
L 183.654069 198.488432 
L 180.868079 195.683949 
L 178.082089 192.595132 
L 175.2961 189.172 
L 172.757413 185.703919 
L 170.652783 182.518462 
L 168.351174 178.62969 
L 166.241893 174.587273 
L 164.399529 170.544857 
L 162.805375 166.50244 
L 161.36615 162.206255 
L 160.304101 158.417606 
L 159.377159 154.37519 
L 158.58016 149.824733 
L 158.135039 146.290356 
L 157.809652 142.247939 
L 157.678447 138.205523 
L 157.741425 134.163106 
L 157.998586 130.120689 
L 158.449931 126.078273 
L 159.101208 122.035856 
L 159.955269 117.993439 
L 161.019059 113.951022 
L 162.299899 109.908606 
L 163.812091 105.866189 
L 165.565584 101.823772 
L 167.578271 97.781355 
L 169.871814 93.738939 
L 172.51011 89.644134 
L 175.422337 85.654105 
L 178.082089 82.395842 
L 180.868079 79.307599 
L 183.654069 76.500853 
L 186.916397 73.526855 
L 190.154712 70.862326 
L 193.869366 68.117126 
L 197.584019 65.667976 
L 201.41603 63.420813 
L 205.318419 61.399605 
L 208.727978 59.836831 
L 212.442632 58.334408 
L 217.085948 56.73848 
L 220.800601 55.672478 
L 224.515255 54.787108 
L 229.158571 53.925167 
L 233.924193 53.314771 
L 238.445204 52.989369 
L 243.088521 52.907001 
L 247.731837 53.079225 
L 252.375154 53.508352 
L 254.23248 53.753287 
L 254.23248 53.753287 
" clip-path="url(#p8aa0621d0a)" style="fill: none; stroke: #eb811b; stroke-width: 1.1"/>
    <path d="M 170.489771 233.202316 
L 166.009467 229.671448 
L 161.918307 226.128087 
L 158.58016 222.983828 
L 154.745775 219.053857 
L 151.145722 215.011441 
L 147.857107 210.969024 
L 144.650211 206.651468 
L 141.864221 202.54033 
L 138.965108 197.831169 
L 136.175108 192.778149 
L 133.691712 187.725128 
L 131.49384 182.672107 
L 129.565311 177.619086 
L 127.891549 172.566065 
L 126.463464 167.513044 
L 125.269597 162.460023 
L 124.304398 157.407002 
L 123.562492 152.353981 
L 123.038671 147.30096 
L 122.730729 142.247939 
L 122.636555 137.194919 
L 122.75615 132.141898 
L 123.089513 127.088877 
L 123.639353 122.035856 
L 124.407689 116.982835 
L 125.399738 111.929814 
L 126.620887 106.876793 
L 128.077856 101.823772 
L 129.791598 96.740036 
L 131.740611 91.71773 
L 133.972081 86.664709 
L 136.292241 81.989674 
L 138.727436 77.569272 
L 141.174687 73.526855 
L 143.848433 69.484438 
L 146.768539 65.442022 
L 150.22219 61.079652 
L 153.44414 57.357188 
L 157.265371 53.314771 
L 160.437487 50.227103 
L 164.15214 46.887853 
L 167.866793 43.813631 
L 171.581446 40.979539 
L 176.224763 37.7451 
L 180.868079 34.821528 
L 185.680797 32.092084 
L 190.154712 29.810122 
L 194.798029 27.684263 
L 199.441345 25.791217 
L 204.421177 24.00725 
L 208.727978 22.660774 
L 213.371295 21.405382 
L 218.014611 20.347183 
L 222.657928 19.481111 
L 228.229908 18.689133 
L 233.801888 18.162426 
L 239.373867 17.896911 
L 244.945847 17.891841 
L 250.517827 18.147085 
L 254.23248 18.462427 
L 254.23248 18.462427 
" clip-path="url(#p8aa0621d0a)" style="fill: none; stroke: #eb811b; stroke-width: 1.1"/>
    <path d="M 131.326278 233.202316 
L 127.934271 229.124168 
L 124.088448 224.106878 
L 120.504965 218.992373 
L 117.309005 214.000836 
L 114.352446 208.947815 
L 111.658129 203.894795 
L 109.20962 198.841774 
L 106.994691 193.788753 
L 105.000871 188.735732 
L 103.219292 183.682711 
L 101.641554 178.62969 
L 100.074372 172.833518 
L 98.856832 167.513044 
L 97.720447 161.449419 
L 96.845437 155.385794 
L 96.226828 149.322169 
L 95.86249 143.258544 
L 95.749342 137.194919 
L 95.887383 131.131293 
L 96.276613 125.067668 
L 96.920592 119.004043 
L 97.821297 112.940418 
L 98.98371 106.876793 
L 100.157203 101.823772 
L 101.818386 95.760147 
L 103.42034 90.707126 
L 105.226792 85.654105 
L 107.503679 79.994407 
L 109.488251 75.548063 
L 112.146995 70.143082 
L 114.932985 65.013723 
L 117.718975 60.323295 
L 120.951565 55.33598 
L 124.219618 50.705991 
L 127.636236 46.240542 
L 130.974045 42.198125 
L 134.56649 38.155709 
L 138.440945 34.113292 
L 142.792884 29.91899 
L 147.436201 25.80441 
L 152.125435 21.986042 
L 156.722834 18.541952 
L 161.36615 15.336498 
L 166.009467 12.385262 
L 166.843467 11.88 
L 166.843467 11.88 
" clip-path="url(#p8aa0621d0a)" style="fill: none; stroke: #eb811b; stroke-width: 1.1"/>
   </g>
   <g id="line2d_25">
    <path d="M 242.269112 137.495368 
L 182.45227 137.495368 
" clip-path="url(#p8aa0621d0a)" style="fill: none; stroke-dasharray: 8.88,3.84; stroke-dashoffset: 0; stroke: #d64550; stroke-width: 2.4"/>
   </g>
   <g id="patch_4">
    <path d="M 47.864375 236.193158 
L 47.864375 8.889158 
" style="fill: none; stroke: #23373b; stroke-width: 0.8; stroke-linejoin: miter; stroke-linecap: square"/>
   </g>
   <g id="patch_5">
    <path d="M 47.864375 236.193158 
L 257.223322 236.193158 
" style="fill: none; stroke: #23373b; stroke-width: 0.8; stroke-linejoin: miter; stroke-linecap: square"/>
   </g>
   <g id="text_15">
    <!-- $z$ -->
    <g style="fill: #2b6cb0" transform="translate(231.50208 130.317347) scale(0.11 -0.11)">
     <defs>
      <path id="DejaVuSans-Oblique-5d" d="M 744 3500 
L 3475 3500 
L 3372 2975 
L 738 459 
L 2913 459 
L 2822 0 
L -19 0 
L 84 525 
L 2719 3041 
L 653 3041 
L 744 3500 
z
" transform="scale(0.015625)"/>
     </defs>
     <use xlink:href="#DejaVuSans-Oblique-5d" transform="translate(0 0.3125)"/>
    </g>
   </g>
   <g id="patch_6">
    <path d="M 160.879433 166.759342 
Q 171.072019 152.932901 180.601191 140.006393 
" style="fill: none; stroke: #d64550; stroke-linecap: round"/>
    <path d="M 176.617837 142.039344 
L 180.601191 140.006393 
L 179.83754 144.412847 
" style="fill: none; stroke: #d64550; stroke-linecap: round"/>
   </g>
   <g id="text_16">
    <!-- QP optimum $(2,1.4)$ -->
    <g style="fill: #d64550" transform="translate(107.681217 178.170821) scale(0.1 -0.1)">
     <defs>
      <path id="IBMPlexSans-2e" d="M 3251 -602 
L 2566 -602 
L 2566 -58 
C 3546 77 4160 870 4160 2234 
C 4160 3731 3418 4544 2266 4544 
C 1114 4544 371 3731 371 2234 
C 371 832 1024 26 2054 -70 
L 2054 -525 
C 2054 -826 2240 -1050 2592 -1050 
L 3251 -1050 
L 3251 -602 
z
M 2266 403 
C 1491 403 947 979 947 1862 
L 947 2605 
C 947 3488 1491 4064 2266 4064 
C 3040 4064 3584 3488 3584 2605 
L 3584 1862 
C 3584 979 3040 403 2266 403 
z
" transform="scale(0.015625)"/>
      <path id="IBMPlexSans-2d" d="M 1133 0 
L 1133 1907 
L 2374 1907 
C 3174 1907 3622 2400 3622 3187 
C 3622 3974 3174 4467 2374 4467 
L 595 4467 
L 595 0 
L 1133 0 
z
M 1133 3994 
L 2374 3994 
C 2797 3994 3046 3763 3046 3354 
L 3046 3021 
C 3046 2611 2797 2381 2374 2381 
L 1133 2381 
L 1133 3994 
z
" transform="scale(0.015625)"/>
      <path id="IBMPlexSans-3e1" transform="scale(0.015625)"/>
      <path id="IBMPlexSans-12" d="M 1792 -77 
C 2675 -77 3283 602 3283 1651 
C 3283 2701 2675 3379 1792 3379 
C 909 3379 301 2701 301 1651 
C 301 602 909 -77 1792 -77 
z
M 1792 378 
C 1242 378 851 717 851 1414 
L 851 1888 
C 851 2586 1242 2925 1792 2925 
C 2342 2925 2733 2586 2733 1888 
L 2733 1414 
C 2733 717 2342 378 1792 378 
z
" transform="scale(0.015625)"/>
      <path id="IBMPlexSans-13" d="M 544 -1280 
L 1056 -1280 
L 1056 538 
L 1082 538 
C 1280 128 1594 -77 2048 -77 
C 2874 -77 3392 595 3392 1651 
C 3392 2707 2874 3379 2048 3379 
C 1594 3379 1254 3181 1082 2765 
L 1056 2765 
L 1056 3302 
L 544 3302 
L 544 -1280 
z
M 1907 384 
C 1440 384 1056 627 1056 1056 
L 1056 2285 
C 1056 2650 1440 2918 1907 2918 
C 2483 2918 2842 2522 2842 1933 
L 2842 1370 
C 2842 781 2483 384 1907 384 
z
" transform="scale(0.015625)"/>
      <path id="IBMPlexSans-17" d="M 1914 0 
L 1914 448 
L 1242 448 
L 1242 2854 
L 1965 2854 
L 1965 3302 
L 1242 3302 
L 1242 4218 
L 781 4218 
L 781 3603 
C 781 3379 710 3302 493 3302 
L 186 3302 
L 186 2854 
L 730 2854 
L 730 544 
C 730 224 922 0 1274 0 
L 1914 0 
z
" transform="scale(0.015625)"/>
      <path id="IBMPlexSans-c" d="M 800 4077 
C 1018 4077 1114 4192 1114 4365 
L 1114 4448 
C 1114 4621 1018 4736 800 4736 
C 582 4736 486 4621 486 4448 
L 486 4365 
C 486 4192 582 4077 800 4077 
z
M 544 0 
L 1056 0 
L 1056 3302 
L 544 3302 
L 544 0 
z
" transform="scale(0.015625)"/>
      <path id="IBMPlexSans-10" d="M 1056 0 
L 1056 2291 
C 1056 2714 1440 2918 1843 2918 
C 2330 2918 2554 2618 2554 2029 
L 2554 0 
L 3066 0 
L 3066 2291 
C 3066 2714 3437 2918 3840 2918 
C 4339 2918 4563 2611 4563 2029 
L 4563 0 
L 5075 0 
L 5075 2118 
C 5075 2918 4672 3379 4000 3379 
C 3437 3379 3117 3066 2995 2707 
L 2982 2707 
C 2803 3181 2406 3379 1971 3379 
C 1459 3379 1229 3104 1082 2765 
L 1056 2765 
L 1056 3302 
L 544 3302 
L 544 0 
L 1056 0 
z
" transform="scale(0.015625)"/>
      <path id="IBMPlexSans-18" d="M 2579 0 
L 3091 0 
L 3091 3302 
L 2579 3302 
L 2579 1018 
C 2579 582 2182 384 1779 384 
C 1286 384 1024 685 1024 1274 
L 1024 3302 
L 512 3302 
L 512 1184 
C 512 384 947 -77 1626 -77 
C 2176 -77 2426 224 2554 538 
L 2579 538 
L 2579 0 
z
" transform="scale(0.015625)"/>
      <path id="DejaVuSans-b" d="M 1984 4856 
Q 1566 4138 1362 3434 
Q 1159 2731 1159 2009 
Q 1159 1288 1364 580 
Q 1569 -128 1984 -844 
L 1484 -844 
Q 1016 -109 783 600 
Q 550 1309 550 2009 
Q 550 2706 781 3412 
Q 1013 4119 1484 4856 
L 1984 4856 
z
" transform="scale(0.015625)"/>
      <path id="DejaVuSans-f" d="M 750 794 
L 1409 794 
L 1409 256 
L 897 -744 
L 494 -744 
L 750 256 
L 750 794 
z
" transform="scale(0.015625)"/>
      <path id="DejaVuSans-11" d="M 684 794 
L 1344 794 
L 1344 0 
L 684 0 
L 684 794 
z
" transform="scale(0.015625)"/>
      <path id="DejaVuSans-17" d="M 2419 4116 
L 825 1625 
L 2419 1625 
L 2419 4116 
z
M 2253 4666 
L 3047 4666 
L 3047 1625 
L 3713 1625 
L 3713 1100 
L 3047 1100 
L 3047 0 
L 2419 0 
L 2419 1100 
L 313 1100 
L 313 1709 
L 2253 4666 
z
" transform="scale(0.015625)"/>
      <path id="DejaVuSans-c" d="M 513 4856 
L 1013 4856 
Q 1481 4119 1714 3412 
Q 1947 2706 1947 2009 
Q 1947 1309 1714 600 
Q 1481 -109 1013 -844 
L 513 -844 
Q 928 -128 1133 580 
Q 1338 1288 1338 2009 
Q 1338 2731 1133 3434 
Q 928 4138 513 4856 
z
" transform="scale(0.015625)"/>
     </defs>
     <use xlink:href="#IBMPlexSans-2e" transform="translate(0 0.125)"/>
     <use xlink:href="#IBMPlexSans-2d" transform="translate(70.799927 0.125)"/>
     <use xlink:href="#IBMPlexSans-3e1" transform="translate(131.399872 0.125)"/>
     <use xlink:href="#IBMPlexSans-12" transform="translate(154.999847 0.125)"/>
     <use xlink:href="#IBMPlexSans-13" transform="translate(210.999802 0.125)"/>
     <use xlink:href="#IBMPlexSans-17" transform="translate(268.999741 0.125)"/>
     <use xlink:href="#IBMPlexSans-c" transform="translate(304.099701 0.125)"/>
     <use xlink:href="#IBMPlexSans-10" transform="translate(329.09967 0.125)"/>
     <use xlink:href="#IBMPlexSans-18" transform="translate(416.399582 0.125)"/>
     <use xlink:href="#IBMPlexSans-10" transform="translate(473.199524 0.125)"/>
     <use xlink:href="#IBMPlexSans-3e1" transform="translate(560.499435 0.125)"/>
     <use xlink:href="#DejaVuSans-b" transform="translate(584.099411 0.125)"/>
     <use xlink:href="#DejaVuSans-15" transform="translate(623.113083 0.125)"/>
     <use xlink:href="#DejaVuSans-f" transform="translate(686.73613 0.125)"/>
     <use xlink:href="#DejaVuSans-14" transform="translate(738.005661 0.125)"/>
     <use xlink:href="#DejaVuSans-11" transform="translate(801.628708 0.125)"/>
     <use xlink:href="#DejaVuSans-17" transform="translate(833.415817 0.125)"/>
     <use xlink:href="#DejaVuSans-c" transform="translate(897.038864 0.125)"/>
    </g>
   </g>
   <g id="PathCollection_1">
    <defs>
     <path id="ma43bfb7497" d="M 0 2.95804 
C 0.784481 2.95804 1.536938 2.646362 2.09165 2.09165 
C 2.646362 1.536938 2.95804 0.784481 2.95804 0 
C 2.95804 -0.784481 2.646362 -1.536938 2.09165 -2.09165 
C 1.536938 -2.646362 0.784481 -2.95804 0 -2.95804 
C -0.784481 -2.95804 -1.536938 -2.646362 -2.09165 -2.09165 
C -2.646362 -1.536938 -2.95804 -0.784481 -2.95804 0 
C -2.95804 0.784481 -2.646362 1.536938 -2.09165 2.09165 
C -1.536938 2.646362 -0.784481 2.95804 0 2.95804 
z
" style="stroke: #23373b"/>
    </defs>
    <g clip-path="url(#p8aa0621d0a)">
     <use xlink:href="#ma43bfb7497" x="62.818586" y="221.238947" style="fill: #23373b; stroke: #23373b"/>
     <use xlink:href="#ma43bfb7497" x="182.45227" y="221.238947" style="fill: #23373b; stroke: #23373b"/>
     <use xlink:href="#ma43bfb7497" x="182.45227" y="101.605263" style="fill: #23373b; stroke: #23373b"/>
     <use xlink:href="#ma43bfb7497" x="122.635428" y="41.788421" style="fill: #23373b; stroke: #23373b"/>
     <use xlink:href="#ma43bfb7497" x="62.818586" y="41.788421" style="fill: #23373b; stroke: #23373b"/>
    </g>
   </g>
   <g id="PathCollection_2">
    <defs>
     <path id="mdd6a1e246b" d="M 0 4.031129 
C 1.069068 4.031129 2.094493 3.606384 2.850439 2.850439 
C 3.606384 2.094493 4.031129 1.069068 4.031129 0 
C 4.031129 -1.069068 3.606384 -2.094493 2.850439 -2.850439 
C 2.094493 -3.606384 1.069068 -4.031129 0 -4.031129 
C -1.069068 -4.031129 -2.094493 -3.606384 -2.850439 -2.850439 
C -3.606384 -2.094493 -4.031129 -1.069068 -4.031129 0 
C -4.031129 1.069068 -3.606384 2.094493 -2.850439 2.850439 
C -2.094493 3.606384 -1.069068 4.031129 0 4.031129 
z
" style="stroke: #2b6cb0"/>
    </defs>
    <g clip-path="url(#p8aa0621d0a)">
     <use xlink:href="#mdd6a1e246b" x="242.269112" y="137.495368" style="fill: #2b6cb0; stroke: #2b6cb0"/>
    </g>
   </g>
   <g id="PathCollection_3">
    <defs>
     <path id="m68bde34c39" d="M 0 4.472136 
C 1.186024 4.472136 2.323632 4.000923 3.162278 3.162278 
C 4.000923 2.323632 4.472136 1.186024 4.472136 0 
C 4.472136 -1.186024 4.000923 -2.323632 3.162278 -3.162278 
C 2.323632 -4.000923 1.186024 -4.472136 0 -4.472136 
C -1.186024 -4.472136 -2.323632 -4.000923 -3.162278 -3.162278 
C -4.000923 -2.323632 -4.472136 -1.186024 -4.472136 0 
C -4.472136 1.186024 -4.000923 2.323632 -3.162278 3.162278 
C -2.323632 4.000923 -1.186024 4.472136 0 4.472136 
z
" style="stroke: #d64550"/>
    </defs>
    <g clip-path="url(#p8aa0621d0a)">
     <use xlink:href="#m68bde34c39" x="182.45227" y="137.495368" style="fill: #d64550; stroke: #d64550"/>
    </g>
   </g>
  </g>
 </g>
 <defs>
  <clipPath id="p8aa0621d0a">
   <rect x="47.864375" y="8.889158" width="209.358947" height="227.304"/>
  </clipPath>
 </defs>
</svg>
