<?xml version="1.0" encoding="utf-8" standalone="no"?>
<!DOCTYPE svg PUBLIC "-//W3C//DTD SVG 1.1//EN"
  "http://www.w3.org/Graphics/SVG/1.1/DTD/svg11.dtd">
<svg xmlns:xlink="http://www.w3.org/1999/xlink" width="398.696562pt" height="260pt" viewBox="0 0 398.696562 260" xmlns="http://www.w3.org/2000/svg" version="1.1">
 <metadata>
  <rdf:RDF xmlns:dc="http://purl.org/dc/elements/1.1/" xmlns:cc="http://creativecommons.org/ns#" xmlns:rdf="http://www.w3.org/1999/02/22-rdf-syntax-ns#">
   <cc:Work>
    <dc:type rdf:resource="http://purl.org/dc/dcmitype/StillImage"/>
    <dc:date>2026-08-11T16:07:57.399146</dc:date>
    <dc:format>image/svg+xml</dc:format>
    <dc:creator>
     <cc:Agent>
      <dc:title>Matplotlib v3.11.1, https://matplotlib.org/</dc:title>
     </cc:Agent>
    </dc:creator>
   </cc:Work>
  </rdf:RDF>
 </metadata>
 <defs>
  <style type="text/css">*{stroke-linejoin: round; stroke-linecap: butt}</style>
 </defs>
 <g id="figure_1">
  <g id="patch_1">
   <path d="M 0 260 
L 398.696562 260 
L 398.696562 0 
L 0 0 
L 0 260 
z
" style="fill: none"/>
  </g>
  <g id="axes_1">
   <g id="patch_2">
    <path d="M 31.124375 228.096 
L 382.664375 228.096 
L 382.664375 11.88 
L 31.124375 11.88 
L 31.124375 228.096 
z
" style="fill: none"/>
   </g>
   <g id="matplotlib.axis_1">
    <g id="xtick_1">
     <g id="line2d_1">
      <path d="M 47.864375 228.096 
L 47.864375 11.88 
" clip-path="url(#p8372f9196e)" style="fill: none; stroke: #b0b0b0; stroke-opacity: 0.12; stroke-width: 0.8; stroke-linecap: square"/>
     </g>
     <g id="line2d_2">
      <defs>
       <path id="m4572ecbded" d="M 0 0 
L 0 3.5 
" style="stroke: #23373b; stroke-width: 0.8"/>
      </defs>
      <g>
       <use xlink:href="#m4572ecbded" x="47.864375" y="217.8" style="fill: #23373b; stroke: #23373b; stroke-width: 0.8"/>
      </g>
     </g>
     <g id="text_1">
      <!-- 0.0 -->
      <g style="fill: #23373b" transform="translate(39.032187 234.16) scale(0.12 -0.12)">
       <defs>
        <path id="IBMPlexSans-38" d="M 1920 -77 
C 2989 -77 3456 774 3456 2234 
C 3456 3693 2989 4544 1920 4544 
C 851 4544 384 3693 384 2234 
C 384 774 851 -77 1920 -77 
z
M 1920 390 
C 1222 390 947 1005 947 1869 
L 947 2598 
C 947 3462 1222 4077 1920 4077 
C 2618 4077 2893 3462 2893 2598 
L 2893 1869 
C 2893 1005 2618 390 1920 390 
z
" transform="scale(0.015625)"/>
        <path id="IBMPlexSans-5a" d="M 870 -77 
C 1139 -77 1261 77 1261 294 
L 1261 378 
C 1261 595 1139 749 870 749 
C 602 749 480 595 480 378 
L 480 294 
C 480 77 602 -77 870 -77 
z
" transform="scale(0.015625)"/>
       </defs>
       <use xlink:href="#IBMPlexSans-38"/>
       <use xlink:href="#IBMPlexSans-5a" transform="translate(60 0)"/>
       <use xlink:href="#IBMPlexSans-38" transform="translate(87.203125 0)"/>
      </g>
     </g>
    </g>
    <g id="xtick_2">
     <g id="line2d_3">
      <path d="M 103.664375 228.096 
L 103.664375 11.88 
" clip-path="url(#p8372f9196e)" style="fill: none; stroke: #b0b0b0; stroke-opacity: 0.12; stroke-width: 0.8; stroke-linecap: square"/>
     </g>
     <g id="line2d_4">
      <g>
       <use xlink:href="#m4572ecbded" x="103.664375" y="217.8" style="fill: #23373b; stroke: #23373b; stroke-width: 0.8"/>
      </g>
     </g>
     <g id="text_2">
      <!-- 0.5 -->
      <g style="fill: #23373b" transform="translate(94.832187 234.16) scale(0.12 -0.12)">
       <defs>
        <path id="IBMPlexSans-3f" d="M 3187 4467 
L 794 4467 
L 634 2010 
L 1088 1946 
C 1274 2150 1478 2323 1888 2323 
C 2496 2323 2822 1984 2822 1395 
L 2822 1331 
C 2822 742 2496 403 1888 403 
C 1350 403 1126 640 896 992 
L 493 685 
C 762 301 1146 -77 1888 -77 
C 2829 -77 3392 531 3392 1402 
C 3392 2266 2829 2784 2061 2784 
C 1594 2784 1357 2592 1146 2291 
L 1101 2291 
L 1229 3994 
L 3187 3994 
L 3187 4467 
z
" transform="scale(0.015625)"/>
       </defs>
       <use xlink:href="#IBMPlexSans-38"/>
       <use xlink:href="#IBMPlexSans-5a" transform="translate(60 0)"/>
       <use xlink:href="#IBMPlexSans-3f" transform="translate(87.203125 0)"/>
      </g>
     </g>
    </g>
    <g id="xtick_3">
     <g id="line2d_5">
      <path d="M 159.464375 228.096 
L 159.464375 11.88 
" clip-path="url(#p8372f9196e)" style="fill: none; stroke: #b0b0b0; stroke-opacity: 0.12; stroke-width: 0.8; stroke-linecap: square"/>
     </g>
     <g id="line2d_6">
      <g>
       <use xlink:href="#m4572ecbded" x="159.464375" y="217.8" style="fill: #23373b; stroke: #23373b; stroke-width: 0.8"/>
      </g>
     </g>
     <g id="text_3">
      <!-- 1.0 -->
      <g style="fill: #23373b" transform="translate(150.632187 234.16) scale(0.12 -0.12)">
       <defs>
        <path id="IBMPlexSans-3b" d="M 3501 0 
L 3501 474 
L 2349 474 
L 2349 4467 
L 1510 4467 
L 326 3360 
L 640 3021 
L 1766 4070 
L 1811 4070 
L 1811 474 
L 563 474 
L 563 0 
L 3501 0 
z
" transform="scale(0.015625)"/>
       </defs>
       <use xlink:href="#IBMPlexSans-3b"/>
       <use xlink:href="#IBMPlexSans-5a" transform="translate(60 0)"/>
       <use xlink:href="#IBMPlexSans-38" transform="translate(87.203125 0)"/>
      </g>
     </g>
    </g>
    <g id="xtick_4">
     <g id="line2d_7">
      <path d="M 215.264375 228.096 
L 215.264375 11.88 
" clip-path="url(#p8372f9196e)" style="fill: none; stroke: #b0b0b0; stroke-opacity: 0.12; stroke-width: 0.8; stroke-linecap: square"/>
     </g>
     <g id="line2d_8">
      <g>
       <use xlink:href="#m4572ecbded" x="215.264375" y="217.8" style="fill: #23373b; stroke: #23373b; stroke-width: 0.8"/>
      </g>
     </g>
     <g id="text_4">
      <!-- 1.5 -->
      <g style="fill: #23373b" transform="translate(206.432187 234.16) scale(0.12 -0.12)">
       <use xlink:href="#IBMPlexSans-3b"/>
       <use xlink:href="#IBMPlexSans-5a" transform="translate(60 0)"/>
       <use xlink:href="#IBMPlexSans-3f" transform="translate(87.203125 0)"/>
      </g>
     </g>
    </g>
    <g id="xtick_5">
     <g id="line2d_9">
      <path d="M 271.064375 228.096 
L 271.064375 11.88 
" clip-path="url(#p8372f9196e)" style="fill: none; stroke: #b0b0b0; stroke-opacity: 0.12; stroke-width: 0.8; stroke-linecap: square"/>
     </g>
     <g id="line2d_10">
      <g>
       <use xlink:href="#m4572ecbded" x="271.064375" y="217.8" style="fill: #23373b; stroke: #23373b; stroke-width: 0.8"/>
      </g>
     </g>
     <g id="text_5">
      <!-- 2.0 -->
      <g style="fill: #23373b" transform="translate(262.232187 234.16) scale(0.12 -0.12)">
       <defs>
        <path id="IBMPlexSans-3c" d="M 3411 474 
L 1062 474 
L 2266 1555 
C 2835 2067 3245 2554 3245 3245 
C 3245 4006 2746 4544 1875 4544 
C 1011 4544 614 4019 442 3494 
L 922 3309 
C 1043 3731 1299 4064 1850 4064 
C 2400 4064 2675 3725 2675 3232 
L 2675 3155 
C 2675 2726 2355 2278 1939 1894 
L 480 550 
L 480 0 
L 3411 0 
L 3411 474 
z
" transform="scale(0.015625)"/>
       </defs>
       <use xlink:href="#IBMPlexSans-3c"/>
       <use xlink:href="#IBMPlexSans-5a" transform="translate(60 0)"/>
       <use xlink:href="#IBMPlexSans-38" transform="translate(87.203125 0)"/>
      </g>
     </g>
    </g>
    <g id="xtick_6">
     <g id="line2d_11">
      <path d="M 326.864375 228.096 
L 326.864375 11.88 
" clip-path="url(#p8372f9196e)" style="fill: none; stroke: #b0b0b0; stroke-opacity: 0.12; stroke-width: 0.8; stroke-linecap: square"/>
     </g>
     <g id="line2d_12">
      <g>
       <use xlink:href="#m4572ecbded" x="326.864375" y="217.8" style="fill: #23373b; stroke: #23373b; stroke-width: 0.8"/>
      </g>
     </g>
     <g id="text_6">
      <!-- 2.5 -->
      <g style="fill: #23373b" transform="translate(318.032187 234.16) scale(0.12 -0.12)">
       <use xlink:href="#IBMPlexSans-3c"/>
       <use xlink:href="#IBMPlexSans-5a" transform="translate(60 0)"/>
       <use xlink:href="#IBMPlexSans-3f" transform="translate(87.203125 0)"/>
      </g>
     </g>
    </g>
    <g id="xtick_7">
     <g id="line2d_13">
      <path d="M 382.664375 228.096 
L 382.664375 11.88 
" clip-path="url(#p8372f9196e)" style="fill: none; stroke: #b0b0b0; stroke-opacity: 0.12; stroke-width: 0.8; stroke-linecap: square"/>
     </g>
     <g id="line2d_14">
      <g>
       <use xlink:href="#m4572ecbded" x="382.664375" y="217.8" style="fill: #23373b; stroke: #23373b; stroke-width: 0.8"/>
      </g>
     </g>
     <g id="text_7">
      <!-- 3.0 -->
      <g style="fill: #23373b" transform="translate(373.832187 234.16) scale(0.12 -0.12)">
       <defs>
        <path id="IBMPlexSans-3d" d="M 1184 2573 
L 1184 2106 
L 1709 2106 
C 2336 2106 2669 1805 2669 1280 
L 2669 1229 
C 2669 704 2336 403 1709 403 
C 1165 403 902 640 672 992 
L 269 685 
C 544 301 941 -77 1715 -77 
C 2624 -77 3232 454 3232 1222 
C 3232 1894 2771 2253 2291 2349 
L 2291 2374 
C 2765 2496 3149 2842 3149 3418 
C 3149 4141 2547 4544 1792 4544 
C 1075 4544 685 4173 461 3814 
L 858 3507 
C 1043 3846 1318 4064 1779 4064 
C 2253 4064 2579 3827 2579 3360 
L 2579 3315 
C 2579 2886 2272 2573 1670 2573 
L 1184 2573 
z
" transform="scale(0.015625)"/>
       </defs>
       <use xlink:href="#IBMPlexSans-3d"/>
       <use xlink:href="#IBMPlexSans-5a" transform="translate(60 0)"/>
       <use xlink:href="#IBMPlexSans-38" transform="translate(87.203125 0)"/>
      </g>
     </g>
    </g>
    <g id="text_8">
     <!-- slack $s=-g(x)\geq0$ -->
     <g style="fill: #23373b" transform="translate(152.774375 250.16) scale(0.12 -0.12)">
      <defs>
       <path id="IBMPlexSans-16" d="M 1536 -77 
C 2291 -77 2758 314 2758 954 
C 2758 1453 2477 1773 1747 1882 
L 1491 1920 
C 1082 1984 858 2112 858 2432 
C 858 2746 1082 2944 1504 2944 
C 1926 2944 2208 2746 2355 2541 
L 2694 2848 
C 2426 3181 2074 3379 1542 3379 
C 870 3379 365 3059 365 2406 
C 365 1792 819 1542 1427 1453 
L 1690 1414 
C 2125 1350 2266 1152 2266 896 
C 2266 557 2010 358 1574 358 
C 1158 358 851 544 595 864 
L 230 570 
C 525 179 928 -77 1536 -77 
z
" transform="scale(0.015625)"/>
       <path id="IBMPlexSans-f" d="M 1542 0 
L 1542 448 
L 1056 448 
L 1056 4736 
L 544 4736 
L 544 531 
C 544 224 736 0 1088 0 
L 1542 0 
z
" transform="scale(0.015625)"/>
       <path id="IBMPlexSans-1" d="M 3232 0 
L 3232 448 
L 2854 448 
L 2854 2266 
C 2854 2963 2381 3379 1587 3379 
C 992 3379 595 3085 416 2733 
L 723 2445 
C 902 2746 1165 2938 1562 2938 
C 2086 2938 2342 2682 2342 2214 
L 2342 1888 
L 1690 1888 
C 730 1888 282 1542 282 922 
C 282 307 691 -77 1389 -77 
C 1850 -77 2202 134 2342 538 
L 2374 538 
C 2413 230 2566 0 2944 0 
L 3232 0 
z
M 1472 358 
C 1075 358 819 544 819 870 
L 819 1005 
C 819 1325 1082 1504 1664 1504 
L 2342 1504 
L 2342 960 
C 2342 621 1978 358 1472 358 
z
" transform="scale(0.015625)"/>
       <path id="IBMPlexSans-4" d="M 1773 -77 
C 2400 -77 2829 230 3040 704 
L 2669 954 
C 2490 576 2189 378 1773 378 
C 1165 378 851 794 851 1370 
L 851 1933 
C 851 2509 1165 2925 1773 2925 
C 2176 2925 2458 2726 2579 2387 
L 3008 2605 
C 2816 3059 2426 3379 1773 3379 
C 845 3379 301 2707 301 1651 
C 301 595 845 -77 1773 -77 
z
" transform="scale(0.015625)"/>
       <path id="IBMPlexSans-e" d="M 544 0 
L 1056 0 
L 1056 1178 
L 1549 1683 
L 2643 0 
L 3264 0 
L 1920 1997 
L 3142 3302 
L 2522 3302 
L 1587 2298 
L 1082 1734 
L 1056 1734 
L 1056 4736 
L 544 4736 
L 544 0 
z
" transform="scale(0.015625)"/>
       <path id="IBMPlexSans-3e1" transform="scale(0.015625)"/>
       <path id="DejaVuSans-Oblique-56" d="M 3200 3397 
L 3091 2853 
Q 2863 2978 2609 3040 
Q 2356 3103 2088 3103 
Q 1634 3103 1373 2948 
Q 1113 2794 1113 2528 
Q 1113 2219 1719 2053 
Q 1766 2041 1788 2034 
L 1972 1978 
Q 2547 1819 2739 1644 
Q 2931 1469 2931 1166 
Q 2931 609 2489 259 
Q 2047 -91 1331 -91 
Q 1053 -91 747 -37 
Q 441 16 72 128 
L 184 722 
Q 500 559 806 475 
Q 1113 391 1394 391 
Q 1816 391 2080 572 
Q 2344 753 2344 1031 
Q 2344 1331 1650 1516 
L 1591 1531 
L 1394 1581 
Q 956 1697 753 1886 
Q 550 2075 550 2369 
Q 550 2928 970 3256 
Q 1391 3584 2113 3584 
Q 2397 3584 2667 3537 
Q 2938 3491 3200 3397 
z
" transform="scale(0.015625)"/>
       <path id="DejaVuSans-20" d="M 678 2906 
L 4684 2906 
L 4684 2381 
L 678 2381 
L 678 2906 
z
M 678 1631 
L 4684 1631 
L 4684 1100 
L 678 1100 
L 678 1631 
z
" transform="scale(0.015625)"/>
       <path id="DejaVuSans-c9c" d="M 678 2272 
L 4684 2272 
L 4684 1741 
L 678 1741 
L 678 2272 
z
" transform="scale(0.015625)"/>
       <path id="DejaVuSans-Oblique-4a" d="M 3816 3500 
L 3219 434 
Q 3047 -456 2561 -893 
Q 2075 -1331 1253 -1331 
Q 950 -1331 690 -1286 
Q 431 -1241 206 -1147 
L 313 -588 
Q 525 -725 762 -790 
Q 1000 -856 1269 -856 
Q 1816 -856 2167 -557 
Q 2519 -259 2631 300 
L 2681 563 
Q 2441 288 2122 144 
Q 1803 0 1434 0 
Q 903 0 598 351 
Q 294 703 294 1319 
Q 294 1803 478 2267 
Q 663 2731 997 3091 
Q 1219 3328 1514 3456 
Q 1809 3584 2131 3584 
Q 2484 3584 2746 3420 
Q 3009 3256 3138 2956 
L 3238 3500 
L 3816 3500 
z
M 2950 2216 
Q 2950 2641 2750 2872 
Q 2550 3103 2181 3103 
Q 1953 3103 1747 3012 
Q 1541 2922 1394 2759 
Q 1156 2491 1023 2127 
Q 891 1763 891 1375 
Q 891 944 1092 712 
Q 1294 481 1672 481 
Q 2219 481 2584 976 
Q 2950 1472 2950 2216 
z
" transform="scale(0.015625)"/>
       <path id="DejaVuSans-b" d="M 1984 4856 
Q 1566 4138 1362 3434 
Q 1159 2731 1159 2009 
Q 1159 1288 1364 580 
Q 1569 -128 1984 -844 
L 1484 -844 
Q 1016 -109 783 600 
Q 550 1309 550 2009 
Q 550 2706 781 3412 
Q 1013 4119 1484 4856 
L 1984 4856 
z
" transform="scale(0.015625)"/>
       <path id="DejaVuSans-Oblique-5b" d="M 3841 3500 
L 2234 1784 
L 3219 0 
L 2559 0 
L 1819 1388 
L 531 0 
L -166 0 
L 1556 1844 
L 641 3500 
L 1300 3500 
L 1972 2234 
L 3144 3500 
L 3841 3500 
z
" transform="scale(0.015625)"/>
       <path id="DejaVuSans-c" d="M 513 4856 
L 1013 4856 
Q 1481 4119 1714 3412 
Q 1947 2706 1947 2009 
Q 1947 1309 1714 600 
Q 1481 -109 1013 -844 
L 513 -844 
Q 928 -128 1133 580 
Q 1338 1288 1338 2009 
Q 1338 2731 1133 3434 
Q 928 4138 513 4856 
z
" transform="scale(0.015625)"/>
       <path id="DejaVuSans-cef" d="M 678 3175 
L 678 3725 
L 4684 2578 
L 4684 2047 
L 678 897 
L 678 1453 
L 3681 2309 
L 678 3175 
z
M 4684 531 
L 4684 0 
L 678 0 
L 678 531 
L 4684 531 
z
" transform="scale(0.015625)"/>
       <path id="DejaVuSans-13" d="M 2034 4250 
Q 1547 4250 1301 3770 
Q 1056 3291 1056 2328 
Q 1056 1369 1301 889 
Q 1547 409 2034 409 
Q 2525 409 2770 889 
Q 3016 1369 3016 2328 
Q 3016 3291 2770 3770 
Q 2525 4250 2034 4250 
z
M 2034 4750 
Q 2819 4750 3233 4129 
Q 3647 3509 3647 2328 
Q 3647 1150 3233 529 
Q 2819 -91 2034 -91 
Q 1250 -91 836 529 
Q 422 1150 422 2328 
Q 422 3509 836 4129 
Q 1250 4750 2034 4750 
z
" transform="scale(0.015625)"/>
      </defs>
      <use xlink:href="#IBMPlexSans-16" transform="translate(0 0.125)"/>
      <use xlink:href="#IBMPlexSans-f" transform="translate(48.699951 0.125)"/>
      <use xlink:href="#IBMPlexSans-1" transform="translate(75.899933 0.125)"/>
      <use xlink:href="#IBMPlexSans-4" transform="translate(129.299881 0.125)"/>
      <use xlink:href="#IBMPlexSans-e" transform="translate(179.599838 0.125)"/>
      <use xlink:href="#IBMPlexSans-3e1" transform="translate(232.299789 0.125)"/>
      <use xlink:href="#DejaVuSans-Oblique-56" transform="translate(255.899765 0.125)"/>
      <use xlink:href="#DejaVuSans-20" transform="translate(327.481796 0.125)"/>
      <use xlink:href="#DejaVuSans-c9c" transform="translate(430.753281 0.125)"/>
      <use xlink:href="#DejaVuSans-Oblique-4a" transform="translate(514.542343 0.125)"/>
      <use xlink:href="#DejaVuSans-b" transform="translate(578.018906 0.125)"/>
      <use xlink:href="#DejaVuSans-Oblique-5b" transform="translate(617.032578 0.125)"/>
      <use xlink:href="#DejaVuSans-c" transform="translate(676.212265 0.125)"/>
      <use xlink:href="#DejaVuSans-cef" transform="translate(734.708359 0.125)"/>
      <use xlink:href="#DejaVuSans-13" transform="translate(837.979843 0.125)"/>
     </g>
    </g>
   </g>
   <g id="matplotlib.axis_2">
    <g id="ytick_1">
     <g id="line2d_15">
      <path d="M 31.124375 217.8 
L 382.664375 217.8 
" clip-path="url(#p8372f9196e)" style="fill: none; stroke: #b0b0b0; stroke-opacity: 0.12; stroke-width: 0.8; stroke-linecap: square"/>
     </g>
     <g id="line2d_16">
      <defs>
       <path id="m36385318f6" d="M 0 0 
L -3.5 0 
" style="stroke: #23373b; stroke-width: 0.8"/>
      </defs>
      <g>
       <use xlink:href="#m36385318f6" x="47.864375" y="217.8" style="fill: #23373b; stroke: #23373b; stroke-width: 0.8"/>
      </g>
     </g>
     <g id="text_9">
      <!-- 0.0 -->
      <g style="fill: #23373b" transform="translate(23.2 222.48) scale(0.12 -0.12)">
       <use xlink:href="#IBMPlexSans-38"/>
       <use xlink:href="#IBMPlexSans-5a" transform="translate(60 0)"/>
       <use xlink:href="#IBMPlexSans-38" transform="translate(87.203125 0)"/>
      </g>
     </g>
    </g>
    <g id="ytick_2">
     <g id="line2d_17">
      <path d="M 31.124375 183.48 
L 382.664375 183.48 
" clip-path="url(#p8372f9196e)" style="fill: none; stroke: #b0b0b0; stroke-opacity: 0.12; stroke-width: 0.8; stroke-linecap: square"/>
     </g>
     <g id="line2d_18">
      <g>
       <use xlink:href="#m36385318f6" x="47.864375" y="183.48" style="fill: #23373b; stroke: #23373b; stroke-width: 0.8"/>
      </g>
     </g>
     <g id="text_10">
      <!-- 0.5 -->
      <g style="fill: #23373b" transform="translate(23.2 188.16) scale(0.12 -0.12)">
       <use xlink:href="#IBMPlexSans-38"/>
       <use xlink:href="#IBMPlexSans-5a" transform="translate(60 0)"/>
       <use xlink:href="#IBMPlexSans-3f" transform="translate(87.203125 0)"/>
      </g>
     </g>
    </g>
    <g id="ytick_3">
     <g id="line2d_19">
      <path d="M 31.124375 149.16 
L 382.664375 149.16 
" clip-path="url(#p8372f9196e)" style="fill: none; stroke: #b0b0b0; stroke-opacity: 0.12; stroke-width: 0.8; stroke-linecap: square"/>
     </g>
     <g id="line2d_20">
      <g>
       <use xlink:href="#m36385318f6" x="47.864375" y="149.16" style="fill: #23373b; stroke: #23373b; stroke-width: 0.8"/>
      </g>
     </g>
     <g id="text_11">
      <!-- 1.0 -->
      <g style="fill: #23373b" transform="translate(23.2 153.84) scale(0.12 -0.12)">
       <use xlink:href="#IBMPlexSans-3b"/>
       <use xlink:href="#IBMPlexSans-5a" transform="translate(60 0)"/>
       <use xlink:href="#IBMPlexSans-38" transform="translate(87.203125 0)"/>
      </g>
     </g>
    </g>
    <g id="ytick_4">
     <g id="line2d_21">
      <path d="M 31.124375 114.84 
L 382.664375 114.84 
" clip-path="url(#p8372f9196e)" style="fill: none; stroke: #b0b0b0; stroke-opacity: 0.12; stroke-width: 0.8; stroke-linecap: square"/>
     </g>
     <g id="line2d_22">
      <g>
       <use xlink:href="#m36385318f6" x="47.864375" y="114.84" style="fill: #23373b; stroke: #23373b; stroke-width: 0.8"/>
      </g>
     </g>
     <g id="text_12">
      <!-- 1.5 -->
      <g style="fill: #23373b" transform="translate(23.2 119.52) scale(0.12 -0.12)">
       <use xlink:href="#IBMPlexSans-3b"/>
       <use xlink:href="#IBMPlexSans-5a" transform="translate(60 0)"/>
       <use xlink:href="#IBMPlexSans-3f" transform="translate(87.203125 0)"/>
      </g>
     </g>
    </g>
    <g id="ytick_5">
     <g id="line2d_23">
      <path d="M 31.124375 80.52 
L 382.664375 80.52 
" clip-path="url(#p8372f9196e)" style="fill: none; stroke: #b0b0b0; stroke-opacity: 0.12; stroke-width: 0.8; stroke-linecap: square"/>
     </g>
     <g id="line2d_24">
      <g>
       <use xlink:href="#m36385318f6" x="47.864375" y="80.52" style="fill: #23373b; stroke: #23373b; stroke-width: 0.8"/>
      </g>
     </g>
     <g id="text_13">
      <!-- 2.0 -->
      <g style="fill: #23373b" transform="translate(23.2 85.2) scale(0.12 -0.12)">
       <use xlink:href="#IBMPlexSans-3c"/>
       <use xlink:href="#IBMPlexSans-5a" transform="translate(60 0)"/>
       <use xlink:href="#IBMPlexSans-38" transform="translate(87.203125 0)"/>
      </g>
     </g>
    </g>
    <g id="ytick_6">
     <g id="line2d_25">
      <path d="M 31.124375 46.2 
L 382.664375 46.2 
" clip-path="url(#p8372f9196e)" style="fill: none; stroke: #b0b0b0; stroke-opacity: 0.12; stroke-width: 0.8; stroke-linecap: square"/>
     </g>
     <g id="line2d_26">
      <g>
       <use xlink:href="#m36385318f6" x="47.864375" y="46.2" style="fill: #23373b; stroke: #23373b; stroke-width: 0.8"/>
      </g>
     </g>
     <g id="text_14">
      <!-- 2.5 -->
      <g style="fill: #23373b" transform="translate(23.2 50.88) scale(0.12 -0.12)">
       <use xlink:href="#IBMPlexSans-3c"/>
       <use xlink:href="#IBMPlexSans-5a" transform="translate(60 0)"/>
       <use xlink:href="#IBMPlexSans-3f" transform="translate(87.203125 0)"/>
      </g>
     </g>
    </g>
    <g id="ytick_7">
     <g id="line2d_27">
      <path d="M 31.124375 11.88 
L 382.664375 11.88 
" clip-path="url(#p8372f9196e)" style="fill: none; stroke: #b0b0b0; stroke-opacity: 0.12; stroke-width: 0.8; stroke-linecap: square"/>
     </g>
     <g id="line2d_28">
      <g>
       <use xlink:href="#m36385318f6" x="47.864375" y="11.88" style="fill: #23373b; stroke: #23373b; stroke-width: 0.8"/>
      </g>
     </g>
     <g id="text_15">
      <!-- 3.0 -->
      <g style="fill: #23373b" transform="translate(23.2 16.56) scale(0.12 -0.12)">
       <use xlink:href="#IBMPlexSans-3d"/>
       <use xlink:href="#IBMPlexSans-5a" transform="translate(60 0)"/>
       <use xlink:href="#IBMPlexSans-38" transform="translate(87.203125 0)"/>
      </g>
     </g>
    </g>
    <g id="text_16">
     <!-- price $\lambda\geq0$ -->
     <g style="fill: #23373b" transform="translate(16.56 149.688) rotate(-90) scale(0.12 -0.12)">
      <defs>
       <path id="IBMPlexSans-13" d="M 544 -1280 
L 1056 -1280 
L 1056 538 
L 1082 538 
C 1280 128 1594 -77 2048 -77 
C 2874 -77 3392 595 3392 1651 
C 3392 2707 2874 3379 2048 3379 
C 1594 3379 1254 3181 1082 2765 
L 1056 2765 
L 1056 3302 
L 544 3302 
L 544 -1280 
z
M 1907 384 
C 1440 384 1056 627 1056 1056 
L 1056 2285 
C 1056 2650 1440 2918 1907 2918 
C 2483 2918 2842 2522 2842 1933 
L 2842 1370 
C 2842 781 2483 384 1907 384 
z
" transform="scale(0.015625)"/>
       <path id="IBMPlexSans-15" d="M 1056 0 
L 1056 2240 
C 1056 2554 1389 2790 1939 2790 
L 2240 2790 
L 2240 3302 
L 2042 3302 
C 1504 3302 1203 3008 1088 2694 
L 1056 2694 
L 1056 3302 
L 544 3302 
L 544 0 
L 1056 0 
z
" transform="scale(0.015625)"/>
       <path id="IBMPlexSans-c" d="M 800 4077 
C 1018 4077 1114 4192 1114 4365 
L 1114 4448 
C 1114 4621 1018 4736 800 4736 
C 582 4736 486 4621 486 4448 
L 486 4365 
C 486 4192 582 4077 800 4077 
z
M 544 0 
L 1056 0 
L 1056 3302 
L 544 3302 
L 544 0 
z
" transform="scale(0.015625)"/>
       <path id="IBMPlexSans-6" d="M 1786 -77 
C 2406 -77 2880 230 3091 678 
L 2726 941 
C 2554 576 2234 371 1818 371 
C 1203 371 838 800 838 1370 
L 838 1523 
L 3213 1523 
L 3213 1766 
C 3213 2701 2669 3379 1786 3379 
C 890 3379 301 2701 301 1651 
C 301 602 890 -77 1786 -77 
z
M 1786 2950 
C 2310 2950 2662 2560 2662 1978 
L 2662 1907 
L 838 1907 
L 838 1952 
C 838 2528 1229 2950 1786 2950 
z
" transform="scale(0.015625)"/>
       <path id="DejaVuSans-Oblique-34f" d="M 2350 4316 
L 3125 0 
L 2516 0 
L 2038 2588 
L 328 0 
L -281 0 
L 1903 3356 
L 1794 3975 
Q 1725 4369 1391 4369 
L 1091 4369 
L 1184 4863 
L 1550 4856 
Q 2253 4847 2350 4316 
z
" transform="scale(0.015625)"/>
      </defs>
      <use xlink:href="#IBMPlexSans-13" transform="translate(0 0.015625)"/>
      <use xlink:href="#IBMPlexSans-15" transform="translate(57.999939 0.015625)"/>
      <use xlink:href="#IBMPlexSans-c" transform="translate(94.699905 0.015625)"/>
      <use xlink:href="#IBMPlexSans-4" transform="translate(119.699875 0.015625)"/>
      <use xlink:href="#IBMPlexSans-6" transform="translate(169.999832 0.015625)"/>
      <use xlink:href="#IBMPlexSans-3e1" transform="translate(224.89978 0.015625)"/>
      <use xlink:href="#DejaVuSans-Oblique-34f" transform="translate(248.499756 0.015625)"/>
      <use xlink:href="#DejaVuSans-cef" transform="translate(327.161865 0.015625)"/>
      <use xlink:href="#DejaVuSans-13" transform="translate(430.43335 0.015625)"/>
     </g>
    </g>
   </g>
   <g id="line2d_29">
    <path d="M 47.864375 217.8 
L 360.344375 217.8 
" clip-path="url(#p8372f9196e)" style="fill: none; stroke: #2c7a7b; stroke-width: 5; stroke-linecap: square"/>
   </g>
   <g id="line2d_30">
    <path d="M 47.864375 217.8 
L 47.864375 25.608 
" clip-path="url(#p8372f9196e)" style="fill: none; stroke: #eb811b; stroke-width: 5; stroke-linecap: square"/>
   </g>
   <g id="patch_3">
    <path d="M 47.864375 228.096 
L 47.864375 11.88 
" style="fill: none; stroke: #23373b; stroke-width: 0.8; stroke-linejoin: miter; stroke-linecap: square"/>
   </g>
   <g id="patch_4">
    <path d="M 31.124375 217.8 
L 382.664375 217.8 
" style="fill: none; stroke: #23373b; stroke-width: 0.8; stroke-linejoin: miter; stroke-linecap: square"/>
   </g>
   <g id="text_17">
    <!-- inactive: slack $&gt;0$, $\lambda=0$ -->
    <g style="fill: #14b03d" transform="translate(198.524375 201.3264) scale(0.12 -0.12)">
     <defs>
      <path id="IBMPlexSans-11" d="M 1056 0 
L 1056 2291 
C 1056 2714 1453 2918 1862 2918 
C 2355 2918 2611 2618 2611 2029 
L 2611 0 
L 3123 0 
L 3123 2118 
C 3123 2918 2694 3379 2016 3379 
C 1523 3379 1242 3136 1082 2765 
L 1056 2765 
L 1056 3302 
L 544 3302 
L 544 0 
L 1056 0 
z
" transform="scale(0.015625)"/>
      <path id="IBMPlexSans-17" d="M 1914 0 
L 1914 448 
L 1242 448 
L 1242 2854 
L 1965 2854 
L 1965 3302 
L 1242 3302 
L 1242 4218 
L 781 4218 
L 781 3603 
C 781 3379 710 3302 493 3302 
L 186 3302 
L 186 2854 
L 730 2854 
L 730 544 
C 730 224 922 0 1274 0 
L 1914 0 
z
" transform="scale(0.015625)"/>
      <path id="IBMPlexSans-19" d="M 1869 0 
L 3034 3302 
L 2541 3302 
L 1952 1664 
L 1594 538 
L 1562 538 
L 1203 1664 
L 627 3302 
L 115 3302 
L 1274 0 
L 1869 0 
z
" transform="scale(0.015625)"/>
      <path id="IBMPlexSans-5c" d="M 934 -77 
C 1203 -77 1325 77 1325 294 
L 1325 378 
C 1325 595 1203 749 934 749 
C 666 749 544 595 544 378 
L 544 294 
C 544 77 666 -77 934 -77 
z
M 934 2554 
C 1203 2554 1325 2707 1325 2925 
L 1325 3008 
C 1325 3226 1203 3379 934 3379 
C 666 3379 544 3226 544 3008 
L 544 2925 
C 544 2707 666 2554 934 2554 
z
" transform="scale(0.015625)"/>
      <path id="DejaVuSans-21" d="M 678 3150 
L 678 3719 
L 4684 2266 
L 4684 1747 
L 678 294 
L 678 863 
L 3897 2003 
L 678 3150 
z
" transform="scale(0.015625)"/>
      <path id="IBMPlexSans-5d" d="M 870 749 
C 602 749 480 595 480 371 
L 480 282 
C 480 109 557 -19 730 -58 
C 659 -358 506 -582 250 -851 
L 678 -851 
C 1043 -538 1261 -64 1261 282 
L 1261 371 
C 1261 595 1139 749 870 749 
z
" transform="scale(0.015625)"/>
     </defs>
     <use xlink:href="#IBMPlexSans-c" transform="translate(0 0.015625)"/>
     <use xlink:href="#IBMPlexSans-11" transform="translate(24.999969 0.015625)"/>
     <use xlink:href="#IBMPlexSans-1" transform="translate(81.799911 0.015625)"/>
     <use xlink:href="#IBMPlexSans-4" transform="translate(135.19986 0.015625)"/>
     <use xlink:href="#IBMPlexSans-17" transform="translate(185.499817 0.015625)"/>
     <use xlink:href="#IBMPlexSans-c" transform="translate(220.599777 0.015625)"/>
     <use xlink:href="#IBMPlexSans-19" transform="translate(245.599747 0.015625)"/>
     <use xlink:href="#IBMPlexSans-6" transform="translate(294.799698 0.015625)"/>
     <use xlink:href="#IBMPlexSans-5c" transform="translate(349.699646 0.015625)"/>
     <use xlink:href="#IBMPlexSans-3e1" transform="translate(378.899612 0.015625)"/>
     <use xlink:href="#IBMPlexSans-16" transform="translate(402.499588 0.015625)"/>
     <use xlink:href="#IBMPlexSans-f" transform="translate(451.199539 0.015625)"/>
     <use xlink:href="#IBMPlexSans-1" transform="translate(478.399521 0.015625)"/>
     <use xlink:href="#IBMPlexSans-4" transform="translate(531.799469 0.015625)"/>
     <use xlink:href="#IBMPlexSans-e" transform="translate(582.099426 0.015625)"/>
     <use xlink:href="#IBMPlexSans-3e1" transform="translate(634.799377 0.015625)"/>
     <use xlink:href="#DejaVuSans-21" transform="translate(677.881775 0.015625)"/>
     <use xlink:href="#DejaVuSans-13" transform="translate(781.153259 0.015625)"/>
     <use xlink:href="#IBMPlexSans-5d" transform="translate(844.776306 0.015625)"/>
     <use xlink:href="#IBMPlexSans-3e1" transform="translate(871.976288 0.015625)"/>
     <use xlink:href="#DejaVuSans-Oblique-34f" transform="translate(895.576263 0.015625)"/>
     <use xlink:href="#DejaVuSans-20" transform="translate(974.238373 0.015625)"/>
     <use xlink:href="#DejaVuSans-13" transform="translate(1077.509857 0.015625)"/>
    </g>
   </g>
   <g id="text_18">
    <!-- active: slack $=0$, $\lambda\geq0$ -->
    <g style="fill: #d64550" transform="translate(65.720375 70.224) scale(0.12 -0.12)">
     <use xlink:href="#IBMPlexSans-1" transform="translate(0 0.015625)"/>
     <use xlink:href="#IBMPlexSans-4" transform="translate(53.399948 0.015625)"/>
     <use xlink:href="#IBMPlexSans-17" transform="translate(103.699905 0.015625)"/>
     <use xlink:href="#IBMPlexSans-c" transform="translate(138.799866 0.015625)"/>
     <use xlink:href="#IBMPlexSans-19" transform="translate(163.799835 0.015625)"/>
     <use xlink:href="#IBMPlexSans-6" transform="translate(212.999786 0.015625)"/>
     <use xlink:href="#IBMPlexSans-5c" transform="translate(267.899734 0.015625)"/>
     <use xlink:href="#IBMPlexSans-3e1" transform="translate(297.099701 0.015625)"/>
     <use xlink:href="#IBMPlexSans-16" transform="translate(320.699677 0.015625)"/>
     <use xlink:href="#IBMPlexSans-f" transform="translate(369.399628 0.015625)"/>
     <use xlink:href="#IBMPlexSans-1" transform="translate(396.599609 0.015625)"/>
     <use xlink:href="#IBMPlexSans-4" transform="translate(449.999557 0.015625)"/>
     <use xlink:href="#IBMPlexSans-e" transform="translate(500.299515 0.015625)"/>
     <use xlink:href="#IBMPlexSans-3e1" transform="translate(552.999466 0.015625)"/>
     <use xlink:href="#DejaVuSans-20" transform="translate(596.081863 0.015625)"/>
     <use xlink:href="#DejaVuSans-13" transform="translate(699.353348 0.015625)"/>
     <use xlink:href="#IBMPlexSans-5d" transform="translate(762.976395 0.015625)"/>
     <use xlink:href="#IBMPlexSans-3e1" transform="translate(790.176376 0.015625)"/>
     <use xlink:href="#DejaVuSans-Oblique-34f" transform="translate(813.776352 0.015625)"/>
     <use xlink:href="#DejaVuSans-cef" transform="translate(892.438461 0.015625)"/>
     <use xlink:href="#DejaVuSans-13" transform="translate(995.709946 0.015625)"/>
    </g>
   </g>
   <g id="text_19">
    <!-- forbidden by -->
    <g style="fill: #6e7f82" transform="translate(142.22 102.672) scale(0.12 -0.12)">
     <defs>
      <path id="IBMPlexSans-7" d="M 723 0 
L 1235 0 
L 1235 2854 
L 1946 2854 
L 1946 3302 
L 1235 3302 
L 1235 4288 
L 1946 4288 
L 1946 4736 
L 1446 4736 
C 960 4736 723 4422 723 3968 
L 723 3302 
L 186 3302 
L 186 2854 
L 723 2854 
L 723 0 
z
" transform="scale(0.015625)"/>
      <path id="IBMPlexSans-12" d="M 1792 -77 
C 2675 -77 3283 602 3283 1651 
C 3283 2701 2675 3379 1792 3379 
C 909 3379 301 2701 301 1651 
C 301 602 909 -77 1792 -77 
z
M 1792 378 
C 1242 378 851 717 851 1414 
L 851 1888 
C 851 2586 1242 2925 1792 2925 
C 2342 2925 2733 2586 2733 1888 
L 2733 1414 
C 2733 717 2342 378 1792 378 
z
" transform="scale(0.015625)"/>
      <path id="IBMPlexSans-3" d="M 544 0 
L 1056 0 
L 1056 538 
L 1082 538 
C 1280 128 1594 -77 2048 -77 
C 2874 -77 3392 595 3392 1651 
C 3392 2707 2874 3379 2048 3379 
C 1594 3379 1254 3181 1082 2765 
L 1056 2765 
L 1056 4736 
L 544 4736 
L 544 0 
z
M 1907 384 
C 1440 384 1056 627 1056 1056 
L 1056 2285 
C 1056 2650 1440 2918 1907 2918 
C 2483 2918 2842 2522 2842 1933 
L 2842 1370 
C 2842 781 2483 384 1907 384 
z
" transform="scale(0.015625)"/>
      <path id="IBMPlexSans-5" d="M 2656 0 
L 3168 0 
L 3168 4736 
L 2656 4736 
L 2656 2765 
L 2630 2765 
C 2458 3181 2118 3379 1664 3379 
C 838 3379 320 2707 320 1651 
C 320 595 838 -77 1664 -77 
C 2118 -77 2432 128 2630 538 
L 2656 538 
L 2656 0 
z
M 1805 384 
C 1229 384 870 781 870 1370 
L 870 1933 
C 870 2522 1229 2918 1805 2918 
C 2272 2918 2656 2650 2656 2285 
L 2656 1056 
C 2656 627 2272 384 1805 384 
z
" transform="scale(0.015625)"/>
      <path id="IBMPlexSans-1c" d="M 1779 1056 
L 1600 518 
L 1568 518 
L 1414 1056 
L 621 3302 
L 109 3302 
L 1344 -128 
L 1094 -832 
L 576 -832 
L 576 -1280 
L 838 -1280 
C 1325 -1280 1459 -1165 1606 -768 
L 3085 3302 
L 2579 3302 
L 1779 1056 
z
" transform="scale(0.015625)"/>
     </defs>
     <use xlink:href="#IBMPlexSans-7"/>
     <use xlink:href="#IBMPlexSans-12" transform="translate(32 0)"/>
     <use xlink:href="#IBMPlexSans-15" transform="translate(88 0)"/>
     <use xlink:href="#IBMPlexSans-3" transform="translate(124.703125 0)"/>
     <use xlink:href="#IBMPlexSans-c" transform="translate(182.703125 0)"/>
     <use xlink:href="#IBMPlexSans-5" transform="translate(207.703125 0)"/>
     <use xlink:href="#IBMPlexSans-5" transform="translate(265.703125 0)"/>
     <use xlink:href="#IBMPlexSans-6" transform="translate(323.703125 0)"/>
     <use xlink:href="#IBMPlexSans-11" transform="translate(378.609375 0)"/>
     <use xlink:href="#IBMPlexSans-3e1" transform="translate(435.40625 0)"/>
     <use xlink:href="#IBMPlexSans-3" transform="translate(459 0)"/>
     <use xlink:href="#IBMPlexSans-1c" transform="translate(516.5 0)"/>
    </g>
    <!-- $\lambda\,s=0$ -->
    <g style="fill: #6e7f82" transform="translate(157.364375 118.272) scale(0.12 -0.12)">
     <use xlink:href="#DejaVuSans-Oblique-34f" transform="translate(0 0.015625)"/>
     <use xlink:href="#DejaVuSans-Oblique-56" transform="translate(75.415364 0.015625)"/>
     <use xlink:href="#DejaVuSans-20" transform="translate(146.997395 0.015625)"/>
     <use xlink:href="#DejaVuSans-13" transform="translate(250.268879 0.015625)"/>
    </g>
   </g>
   <g id="PathCollection_1">
    <defs>
     <path id="C0_0_c808dd55e1" d="M 0 4.472136 
C 1.186024 4.472136 2.323632 4.000923 3.162278 3.162278 
C 4.000923 2.323632 4.472136 1.186024 4.472136 -0 
C 4.472136 -1.186024 4.000923 -2.323632 3.162278 -3.162278 
C 2.323632 -4.000923 1.186024 -4.472136 0 -4.472136 
C -1.186024 -4.472136 -2.323632 -4.000923 -3.162278 -3.162278 
C -4.000923 -2.323632 -4.472136 -1.186024 -4.472136 0 
C -4.472136 1.186024 -4.000923 2.323632 -3.162278 3.162278 
C -2.323632 4.000923 -1.186024 4.472136 0 4.472136 
z
"/>
    </defs>
    <g clip-path="url(#p8372f9196e)">
     <use xlink:href="#C0_0_c808dd55e1" x="271.064375" y="217.8" style="fill: #14b03d; stroke: #14b03d"/>
    </g>
    <g clip-path="url(#p8372f9196e)">
     <use xlink:href="#C0_0_c808dd55e1" x="47.864375" y="80.52" style="fill: #d64550; stroke: #d64550"/>
    </g>
   </g>
  </g>
 </g>
 <defs>
  <clipPath id="p8372f9196e">
   <rect x="31.124375" y="11.88" width="351.54" height="216.216"/>
  </clipPath>
 </defs>
</svg>
